<?xml version="1.0" encoding="UTF-8" standalone="no"?>
<svg
   xmlns:dc="http://purl.org/dc/elements/1.1/"
   xmlns:cc="http://creativecommons.org/ns#"
   xmlns:rdf="http://www.w3.org/1999/02/22-rdf-syntax-ns#"
   xmlns:svg="http://www.w3.org/2000/svg"
   xmlns="http://www.w3.org/2000/svg"
   viewBox="0 0 367.67999 330.98666"
   height="330.98666"
   width="367.67999"
   xml:space="preserve"
   id="svg2"
   version="1.1"><metadata
     id="metadata8"><rdf:RDF><cc:Work
         rdf:about=""><dc:format>image/svg+xml</dc:format><dc:type
           rdf:resource="http://purl.org/dc/dcmitype/StillImage" /></cc:Work></rdf:RDF></metadata><defs
     id="defs6"><clipPath
       id="clipPath18"
       clipPathUnits="userSpaceOnUse"><path
         id="path16"
         d="M 0,248.24 H 275.76 V 0 H 0 Z" /></clipPath></defs><g
     transform="matrix(1.3333333,0,0,-1.3333333,0,330.98667)"
     id="g10"><g
       id="g12"><g
         clip-path="url(#clipPath18)"
         id="g14"><g
           transform="translate(147.46,141.7703)"
           id="g20"><path
             id="path22"
             style="fill:#000000;fill-opacity:1;fill-rule:nonzero;stroke:none"
             d="m 0,0 c -0.7,-0.65 -1.61,-1.021 -2.49,-1.4 -0.65,-0.27 -0.87,-0.121 -0.86,0.57 0.02,1.55 0.01,3.11 0.01,4.67 h -0.13 c 0.13,1.94 0.27,3.889 0.36,5.83 0.02,0.57 0.32,0.66 0.77,0.64 C -0.99,10.22 0.35,10.07 1.62,9.56 2.63,9.16 3.05,8.33 3.25,7.35 3.91,4.14 2.13,1.97 0,0 m 2.64,-4.9 c -0.47,0.48 -0.1,0.629 0.3,0.82 1.47,0.71 2.73,1.7 3.61,3.07 2.93,4.55 4.39,9.5 3.91,14.96 -0.17,1.91 -1.11,3.14 -2.92,3.83 -2.26,0.85 -4.57,1.35 -6.97,1.58 -2.56,0.24 -5.1,0.13 -7.63,-0.23 -0.26,-0.03 -0.79,-0.23 -0.69,0.32 0.2,1.09 -0.479,0.82 -1.04,0.76 -3.06,-0.32 -6.12,-0.46 -9.2,-0.45 -0.79,0 -1.28,0.7 -2.19,0.48 -2.81,-0.72 -5.71,-0.11 -8.58,-0.38 -3.2,-0.3 -6.46,-0.18 -9.68,0.26 -0.46,0.06 -0.66,-0.05 -0.59,-0.57 0.38,-2.83 0.14,-5.67 0.11,-8.5 0,-0.87 0.26,-0.99 1.04,-0.77 1.5,0.409 3.03,0.64 4.6,0.73 0.87,0.05 1.06,-0.26 1.05,-0.97 0,-1.47 -0.07,-2.95 -0.02,-4.43 0.2,-6.11 -0.24,-12.2 -0.53,-18.3 -0.23,-4.93 -0.81,-9.86 -1.26,-14.781 -0.07,-0.75 -0.01,-1.009 0.89,-0.869 1.94,0.31 3.91,0.26 5.85,-0.051 0.85,-0.139 1.27,-0.109 1.19,1 -0.35,4.411 -0.93,8.811 -1.13,13.241 -0.26,5.9 -0.17,11.79 -0.07,17.69 0.03,1.939 0,3.88 0.18,5.81 0.06,0.629 0.22,0.87 0.81,1.05 1.64,0.5 3.24,0.079 4.86,-0.09 0.55,-0.06 0.56,-0.49 0.56,-0.89 0,-2.08 0.02,-4.16 -0.03,-6.231 -0.1,-3.75 -0.27,-7.489 -0.38,-11.229 -0.07,-2.6 -0.13,-5.19 -0.43,-7.771 -0.47,-3.969 -0.47,-7.969 -1.04,-11.929 -0.09,-0.6 0.1,-0.72 0.7,-0.62 2.03,0.31 4.07,0.299 6.09,-0.05 0.96,-0.16 1.21,0.099 1.14,1.05 -0.31,4.299 -0.9,8.58 -1.1,12.89 -0.22,4.94 -0.19,9.88 -0.15,14.83 0.03,2.18 0.16,4.369 0.02,6.54 -0.23,3.56 0.09,3.97 3.6,3.71 0.08,-0.01 0.16,-0.03 0.24,-0.02 1.11,0.08 1.41,-0.51 1.35,-1.51 -0.11,-1.57 -0.24,-3.15 -0.2,-4.72 0.19,-7.57 0.09,-15.15 -0.1,-22.73 -0.07,-3.101 -0.36,-6.2 -0.53,-9.311 -0.02,-0.46 -0.32,-1.29 0.76,-0.909 2.35,0.819 4.76,1.369 7.26,1.329 0.65,-0.01 0.82,0.271 0.79,0.87 -0.22,4.391 -0.47,8.771 -0.61,13.161 -0.08,2.54 -0.27,5.1 0.2,7.88 2.091,-1.77 2.91,-3.98 3.36,-6.28 1.09,-5.63 0.61,-11.28 -0.15,-16.91 -0.2,-1.521 -0.13,-1.63 1.43,-1.62 2.03,0.01 4.06,0.08 6.09,-0.021 0.82,-0.04 1.01,0.101 1.03,0.92 0.07,3.12 -0.14,6.231 -0.55,9.321 -0.72,5.37 -1.13,10.86 -5.25,15.04" /></g><g
           transform="translate(177.9697,103.5808)"
           id="g24"><path
             id="path26"
             style="fill:#000000;fill-opacity:1;fill-rule:nonzero;stroke:none"
             d="m 0,0 c -0.005,-2.481 0.21,-4.939 0.651,-7.381 0.282,-1.556 0.25,-1.553 -1.36,-1.603 -3.243,-0.104 -6.439,-0.392 -9.396,-1.947 -1.635,-0.859 -2.435,-2.246 -2.47,-3.954 -0.088,-4.297 -0.067,-8.593 0.246,-12.889 0.228,-3.163 0.196,-6.341 0.756,-9.479 0.368,-2.062 0.984,-4.026 2.205,-5.755 1.195,-1.692 3.839,-2.59 5.757,-1.989 0.648,0.202 0.935,0.731 1.122,1.306 0.61,1.88 0.38,3.798 0.117,5.692 -0.123,0.88 -1.051,0.689 -1.553,0.612 -1.524,-0.234 -3.102,0.006 -4.591,-0.591 -0.712,-0.284 -0.868,0.307 -0.912,0.873 -0.136,1.79 -0.26,3.582 -0.41,5.371 -0.24,2.86 -0.466,5.721 -0.947,8.555 -0.131,0.776 0.057,1.224 0.962,1.208 1.315,-0.023 2.635,0.07 3.949,0.024 2.54,-0.087 5.054,0.493 7.602,0.269 0.471,-0.042 0.686,-0.038 0.727,-0.604 0.259,-3.617 0.614,-7.228 0.843,-10.847 0.35,-5.541 0.865,-11.06 1.842,-16.53 0.507,-2.841 0.516,-2.821 -2.295,-3.27 -3.663,-0.584 -7.301,-1.459 -10.987,-1.741 -5.253,-0.403 -8.985,1.173 -10.365,7.488 -0.836,3.828 -1.161,7.705 -1.455,11.604 -0.257,3.418 -0.723,6.831 -0.725,10.256 -0.007,6.804 -0.709,13.632 0.5,20.408 0.336,1.891 0.888,3.709 1.625,5.483 0.799,1.92 2.291,3.021 4.17,3.674 2.94,1.022 5.934,1.4 9.068,1.09 C -3.757,5.178 -2.145,5.238 -0.552,5.166 0.09,5.137 0.276,4.913 0.233,4.305 0.134,2.871 0.075,1.435 0,0" /></g><g
           transform="translate(106.2119,68.4392)"
           id="g28"><path
             id="path30"
             style="fill:#000000;fill-opacity:1;fill-rule:nonzero;stroke:none"
             d="m 0,0 c 0.162,-1.838 0.308,-3.571 0.469,-5.305 0.418,-4.482 0.794,-8.969 1.593,-13.407 0.298,-1.652 0.158,-1.939 -1.416,-2.592 -2.508,-1.041 -5.191,-1.517 -7.757,-2.374 -0.525,-0.175 -0.611,0.02 -0.594,0.492 0.076,2.027 0.2,4.055 0.168,6.081 -0.036,2.339 -0.245,4.675 -0.326,7.015 -0.088,2.515 -0.095,5.032 -0.175,7.548 -0.089,2.827 -0.119,5.661 -0.364,8.477 -0.235,2.698 -0.721,5.374 -1.084,8.061 -0.543,4.024 -1.067,8.05 -1.614,12.072 -0.228,1.68 -0.674,3.33 -0.733,5.151 2.52,-0.89 4.868,-0.277 7.235,0.234 1.483,0.321 2.954,0.671 4.359,1.239 C 0.552,33.013 0.69,32.86 0.612,32.018 0.163,27.125 -0.121,22.223 -0.057,17.305 -0.021,14.628 0.03,11.956 0.39,9.297 0.471,8.696 0.579,8.484 1.25,8.611 2.667,8.879 3.645,9.61 4.161,10.956 4.771,12.551 4.96,14.2 4.787,15.894 4.419,19.5 4.049,23.105 2.912,26.577 c -0.296,0.902 -0.057,1.348 0.983,1.553 2.754,0.544 5.253,1.804 7.743,3.055 0.803,0.404 1.174,0.556 1.218,-0.709 0.162,-4.539 0.613,-9.07 0.737,-13.609 C 13.737,11.623 12.252,7.02 7.644,3.904 7.48,3.794 7.337,3.654 7.103,3.46 c 3.537,-2.704 5.659,-6.387 7.336,-10.344 1.359,-3.205 2.143,-6.575 2.343,-10.065 0.092,-1.592 0.131,-3.188 0.262,-4.776 0.066,-0.794 -0.219,-0.994 -0.982,-1.101 -2.636,-0.368 -5.302,-0.681 -7.676,-2.046 -0.932,-0.536 -1.039,0.059 -0.987,0.742 0.186,2.432 0.205,4.865 0.065,7.298 C 7.127,-10.973 5.221,-5.708 1.449,-1.166 1.171,-0.831 0.823,-0.553 0.493,-0.264 0.383,-0.167 0.229,-0.12 0,0" /></g><g
           transform="translate(146.5117,78.0545)"
           id="g32"><path
             id="path34"
             style="fill:#000000;fill-opacity:1;fill-rule:nonzero;stroke:none"
             d="m 0,0 c 0.084,6.297 -0.225,12.257 -1.101,18.188 -0.366,2.483 -0.303,5.015 -0.734,7.496 -0.092,0.526 0.253,0.474 0.568,0.505 1.626,0.161 3.245,0.355 4.851,0.681 1.096,0.222 2.212,0.342 3.245,0.792 0.72,0.314 0.946,0.102 0.886,-0.65 C 7.574,25.261 7.476,23.508 7.347,21.756 7.163,19.259 7.293,16.763 7.43,14.273 7.566,11.773 7.599,9.278 7.491,6.78 7.294,2.217 7.927,-2.301 8.221,-6.838 c 0.406,-6.261 1.842,-12.374 2.62,-18.582 0.104,-0.841 0.15,-1.163 -0.93,-1.04 -1.898,0.216 -3.825,0.152 -5.694,-0.389 -0.907,-0.261 -1.357,0.024 -1.578,0.994 -0.858,3.757 -1.483,7.578 -2.865,11.203 -0.409,1.073 -0.825,2.144 -1.293,3.358 -0.296,-0.445 -0.214,-0.839 -0.182,-1.18 0.537,-5.672 0.652,-11.382 1.46,-17.032 0.089,-0.624 0.265,-1.239 0.445,-1.846 0.187,-0.625 0.039,-0.988 -0.649,-0.793 -2.986,0.849 -5.919,0.378 -8.851,-0.277 -0.431,-0.097 -0.65,-0.173 -0.612,0.517 0.448,8.066 -0.419,16.066 -1.241,24.073 -0.371,3.602 -0.487,7.228 -0.8,10.837 -0.324,3.731 -0.837,7.447 -1.101,11.183 -0.29,4.079 -0.922,3.105 2.889,3.574 1.273,0.156 2.543,0.328 3.751,0.724 0.941,0.31 1.235,-0.094 1.369,-0.877 0.8,-4.682 2.054,-9.246 3.624,-13.724 C -0.999,2.691 -0.551,1.509 0,0" /></g><g
           transform="translate(78.5728,140.7005)"
           id="g36"><path
             id="path38"
             style="fill:#000000;fill-opacity:1;fill-rule:nonzero;stroke:none"
             d="m 0,0 c -1.613,-5.621 -3.133,-10.917 -4.704,-16.393 -1.123,5.715 -2.566,11.159 -4.764,16.399 -0.46,-5.079 -1.036,-10.13 -1.331,-15.211 -0.214,-3.681 0.035,-7.326 0.454,-10.969 0.071,-0.618 -0.092,-0.734 -0.633,-0.807 -2.257,-0.305 -4.422,-0.951 -6.687,-1.915 3.034,16.677 2.612,33.427 2.317,50.25 2.852,-0.556 5.582,-0.374 8.306,0.024 0.579,0.084 0.791,0.03 0.856,-0.67 0.434,-4.6 0.97,-9.188 1.657,-13.758 0.131,-0.87 0.323,-1.716 0.613,-2.769 0.809,2.742 1.295,5.343 1.541,7.989 0.187,2.027 0.341,4.058 0.5,6.087 0.046,0.587 0.258,0.771 0.915,0.741 2.669,-0.123 5.346,-0.359 8.013,0.057 0.489,0.076 0.922,0.133 0.802,-0.591 C 7.31,15.174 7.759,11.871 7.75,8.575 7.73,0.957 8.044,-6.656 8.448,-14.262 c 0.199,-3.745 0.601,-7.48 0.942,-11.217 0.071,-0.78 -0.008,-1.071 -0.966,-1.019 -2.865,0.158 -5.745,0.255 -8.584,-0.366 -0.724,-0.158 -0.892,0.118 -0.787,0.813 0.388,2.559 0.899,5.102 1.112,7.689 C 0.657,-12.364 1.293,-6.368 0,0" /></g><g
           transform="translate(99.1899,138.5901)"
           id="g40"><path
             id="path42"
             style="fill:#000000;fill-opacity:1;fill-rule:nonzero;stroke:none"
             d="m 0,0 c -1.83,0.21 -1.82,0.1 -1.84,2 -0.05,4.32 0.48,8.59 1.12,12.85 0.02,0.15 0.06,0.29 0.1,0.44 C -0.31,10.58 0.88,6.04 1.22,1.39 1.3,0.39 1.31,-0.15 0,0 m 10.82,-25.17 c -0.2,1.379 -0.52,2.76 -0.53,4.14 -0.02,3.199 -0.33,6.36 -0.69,9.52 C 8.88,-5.25 8.41,1.03 8.15,7.33 8.11,8.32 8.24,9.32 8.17,10.31 7.86,14.24 7.71,18.17 7.85,22.11 7.92,24.1 8.01,24.1 6.09,23.96 5.7,23.93 5.3,23.93 4.9,23.91 2.07,23.81 -0.76,23.7 -3.58,23.97 -4.73,24.09 -5.26,23.7 -5.26,22.45 -5.26,21.02 -5.35,19.57 -5.59,18.16 -6.28,14.03 -6.65,9.86 -6.89,5.68 -7.22,0 -7.52,-5.65 -8.58,-11.28 c -0.88,-4.72 -1.23,-9.54 -1.85,-14.6 2.84,1.299 5.71,0.799 8.51,0.839 0.8,0.021 0.91,0.261 0.89,0.921 -0.08,3.14 -0.5,6.26 -0.37,9.42 0.12,3.13 -0.15,2.15 2.67,2.54 0.59,0.08 0.61,-0.17 0.6,-0.67 -0.16,-4.34 -0.26,-8.69 -0.44,-13.03 -0.04,-0.95 0.23,-1.33 1.17,-1.08 2.42,0.64 4.9,0.71 7.37,0.68 0.94,-0.01 0.95,0.41 0.85,1.09" /></g><g
           transform="translate(180.5,190.5999)"
           id="g44"><path
             id="path46"
             style="fill:#000000;fill-opacity:1;fill-rule:nonzero;stroke:none"
             d="M 0,0 C -2.25,-0.01 -4.03,1.71 -4.02,3.87 -4,5.94 -2.58,7.41 -0.6,7.4 1.57,7.39 3.59,5.55 3.57,3.6 3.55,1.63 1.94,0.01 0,0 m -11.66,12.72 c -0.02,1.37 1.43,3.18 2.56,3.2 1.37,0.01 2.81,-1.45 2.84,-2.88 0.02,-1.53 -1.32,-2.89 -2.88,-2.92 -1.14,-0.02 -2.5,1.37 -2.52,2.6 m -24.21,7.68 c -2.86,1 -3.6,3.22 -1.78,5.35 1.16,1.36 3.18,1.55 4.77,0.44 1.33,-0.92 1.79,-2.94 0.98,-4.38 -0.39,-0.7 -1,-1.13 -1.82,-1.2 -0.73,0.04 -1.46,0.17 -2.15,-0.21 m -26.9,-22.12 c -1,-1.47 -1.92,-2.99 -2.88,-4.49 -1.65,-0.29 -3.3,-0.59 -5,-0.89 V 4.04 c 0.59,-1.36 1.08,-2.55 1.62,-3.72 0.32,-0.68 0.69,-1.34 1.08,-1.99 0.36,-0.6 0.82,-1.16 1.6,-1.05 0.74,0.1 0.97,0.76 1.19,1.37 1.09,3.15 1.42,6.45 1.9,9.73 0.14,1.01 0.25,2.03 0.5,3.07 0.97,-2.49 1.94,-4.97 3.15,-7.35 -1.44,-1.73 -1.9,-3.98 -3.16,-5.82 m -8.16,-12.43 c 0.04,1.45 0.08,2.91 0.12,4.36 0.02,0.44 0.17,0.71 0.68,0.77 0.93,0.1 1.83,0.43 2.79,0.41 -1.2,-1.85 -2.39,-3.7 -3.59,-5.54 m -0.84,21.11 c -1.13,-0.06 -2.03,0.83 -2.05,2.02 -0.02,1.33 1.08,2.76 2.13,2.78 0.97,0.02 2.15,-1.25 2.19,-2.34 0.03,-0.97 -1.29,-2.41 -2.27,-2.46 m 5.39,8.63 c 0,1.58 1.23,2.91 2.7,2.93 1.56,0.02 2.77,-1.27 2.78,-2.97 0.01,-1.39 -1.28,-2.78 -2.58,-2.79 -1.68,-0.01 -2.9,1.18 -2.9,2.83 M 4.91,4.59 C 4.32,7.33 1.51,9.15 -1.37,8.75 -4.77,8.27 -6.41,3.63 -4.22,0.66 c 0.73,-0.98 0.5,-1.49 -0.22,-2.14 -0.33,-0.15 -0.64,-0.31 -0.93,-0.52 -1.06,-0.75 -1.65,-0.6 -2.24,0.58 -0.54,1.08 -0.68,2.26 -0.86,3.44 -0.25,1.65 -0.07,3.33 -0.51,4.96 0.11,0.72 -0.44,1.63 0.9,1.91 2.02,0.42 3.42,2.41 3.25,4.28 -0.17,1.89 -2.13,3.74 -4.11,3.86 -0.7,0.05 -1.43,0.19 -2.06,-0.33 -2.07,-1.74 -3.05,-4.66 -0.76,-6.83 0.38,-0.37 0.37,-0.64 0.05,-0.99 -1.21,-1.21 -1.73,-2.85 -2.64,-4.25 -1.26,-1.94 -2.36,-4.01 -4.35,-5.34 -1.8,-1.22 -3.04,-1.07 -4.61,0.42 -0.85,0.81 -1.51,1.76 -2.17,2.71 -2.98,4.31 -4.91,9.12 -6.73,14 -0.48,1.28 -1.08,2.54 0.56,3.46 2.09,1.69 2.04,4.96 0.13,6.77 -1.86,1.77 -5.42,1.92 -6.98,0.3 -1.82,-1.88 -1.63,-5.34 0.45,-7.21 0.38,-0.34 0.21,-0.5 0.02,-0.75 -0.63,-0.98 -1.09,-2.04 -1.58,-3.08 -2.11,-4.45 -4.35,-8.81 -7.52,-12.62 -0.85,-1.02 -1.82,-1.9 -2.99,-2.55 -0.94,-0.53 -1.9,-0.58 -2.86,-0.07 -1.32,0.69 -2.51,1.54 -3.43,2.75 -0.45,0.59 -0.83,1.27 -1.52,1.65 -1.26,1.67 -2,3.61 -2.85,5.49 -0.4,0.91 -0.45,1.57 0.35,2.39 1.29,1.32 1.29,3.45 0.27,4.99 -0.9,1.36 -2.83,2.07 -4.44,1.63 -1.71,-0.46 -3.1,-2.08 -3.22,-3.77 -0.13,-1.81 0.9,-3.56 2.62,-4.13 0.78,-0.26 0.84,-0.65 0.75,-1.29 -0.38,-2.69 -0.72,-5.38 -1.12,-8.06 -0.18,-1.27 -0.34,-2.55 -0.88,-3.91 -1.26,2.15 -2.05,4.31 -2.91,6.45 -0.36,0.9 -0.44,1.5 0.36,2.27 1.17,1.13 1.21,2.71 0.38,4.07 -0.78,1.26 -2.48,1.97 -3.82,1.59 -1.43,-0.4 -2.75,-2.12 -2.82,-3.67 -0.07,-1.57 0.73,-2.92 2.19,-3.33 0.79,-0.22 0.92,-0.61 0.98,-1.32 0.58,-7.62 0.08,-15.21 -0.73,-22.78 0.74,-0.25 1.48,-0.23 2.25,-0.09 1.02,0.18 2.04,0.4 3.07,0.53 4.52,0.58 9.03,1.2 13.58,1.52 3.51,0.24 7.01,0.48 10.52,0.6 2.95,0.09 5.91,-0.03 8.87,-0.16 4.52,-0.19 9,-0.64 13.47,-1.25 3.59,-0.49 7.08,-1.51 10.62,-2.28 2.21,-0.55 4.28,-1.47 6.34,-2.42 1.32,-0.61 1.31,-0.62 1.32,0.78 0.05,5.8 0.47,11.57 1.43,17.29 0.11,0.67 0.12,1.4 0.41,1.98 0.4,0.81 1.3,0.16 1.93,0.43 0.04,0.01 0.08,0.02 0.11,0.03 2.58,0.6 4.36,3.33 3.81,5.94" /></g><g
           transform="translate(196.3975,154.8606)"
           id="g48"><path
             id="path50"
             style="fill:#000000;fill-opacity:1;fill-rule:nonzero;stroke:none"
             d="m 0,0 c -0.129,-2.271 -0.506,-4.54 -0.18,-6.815 0.125,-0.874 -0.118,-1.259 -1.144,-1.081 -1.77,0.306 -3.569,0.465 -5.367,0.226 -2.23,-0.295 -3.091,-1.326 -3.157,-3.572 -0.047,-1.586 0.206,-3.092 0.828,-4.552 0.316,-0.738 0.833,-1.205 1.612,-1.241 3.55,-0.164 4,-1.685 4.164,-4.504 0.281,-4.854 0.515,-9.718 0.145,-14.585 -0.085,-1.121 -0.3,-2.213 -0.58,-3.292 -0.383,-1.477 -1.489,-2.296 -2.881,-2.572 -2.961,-0.586 -5.867,-0.316 -8.696,0.815 -2.331,0.93 -3.318,2.871 -3.322,5.095 -0.006,3.559 -0.346,7.079 -0.623,10.612 -0.072,0.924 0.009,1.367 1.201,1.032 2.376,-0.668 4.796,-1.229 7.301,-1.154 0.787,0.024 0.97,-0.248 0.798,-1.069 -0.465,-2.222 -0.772,-4.473 -0.379,-6.751 0.068,-0.391 0.131,-0.797 0.282,-1.159 0.259,-0.619 0.899,-0.636 1.43,-0.697 0.659,-0.076 0.725,0.564 0.838,0.982 0.707,2.623 0.542,5.301 0.424,7.971 -0.037,0.838 -0.085,1.675 -0.146,2.511 -0.062,0.842 -0.502,1.265 -1.373,1.354 -0.936,0.095 -1.826,-0.119 -2.726,-0.253 -2.125,-0.318 -3.429,0.462 -4.098,2.497 -1.411,4.29 -1.364,8.724 -1.342,13.161 0.016,3.53 0.328,6.993 1.67,10.318 0.926,2.295 2.674,3.445 5.198,3.323 3.026,-0.146 6.058,-0.305 9.085,-0.26 1.022,0.015 1.032,-0.401 1.035,-1.073 C 0.005,3.512 0,1.756 0,0" /></g><g
           transform="translate(215.1963,154.845)"
           id="g52"><path
             id="path54"
             style="fill:#000000;fill-opacity:1;fill-rule:nonzero;stroke:none"
             d="m 0,0 c -0.146,-2.269 -0.46,-4.533 -0.095,-6.81 0.143,-0.892 -0.241,-1.241 -1.222,-1.07 -1.77,0.307 -3.567,0.467 -5.365,0.222 -2.087,-0.283 -3.034,-1.31 -3.152,-3.375 -0.096,-1.666 0.258,-3.246 0.894,-4.782 0.332,-0.804 0.923,-1.151 1.744,-1.231 2.919,-0.282 3.867,-1.151 3.992,-4.149 0.215,-5.135 0.585,-10.273 0.123,-15.415 -0.008,-0.079 -0.027,-0.157 -0.035,-0.236 -0.405,-4.085 -1.807,-5.347 -5.912,-5.407 -1.898,-0.028 -3.717,0.282 -5.529,0.848 -2.44,0.764 -3.81,2.484 -3.905,4.893 -0.142,3.624 -0.3,7.236 -0.708,10.843 -0.168,1.495 -0.025,1.545 1.477,1.176 2.329,-0.571 4.654,-1.145 7.076,-1.073 1.102,0.032 0.812,-0.651 0.708,-1.27 -0.39,-2.324 -0.695,-4.642 -0.249,-7.008 0.173,-0.913 0.649,-1.317 1.495,-1.398 0.968,-0.092 0.932,0.748 1.072,1.298 0.658,2.591 0.37,5.236 0.342,7.862 -0.008,0.753 -0.057,1.507 -0.147,2.264 -0.122,1.027 -0.664,1.349 -1.581,1.402 -0.887,0.053 -1.741,-0.155 -2.604,-0.279 -2.053,-0.295 -3.436,0.518 -4.018,2.474 -0.8,2.688 -1.291,5.431 -1.277,8.248 0.013,2.679 -0.007,5.358 0.05,8.035 0.059,2.826 0.744,5.541 1.916,8.086 0.859,1.867 2.621,2.499 4.574,2.472 3.231,-0.045 6.459,-0.191 9.69,-0.243 0.72,-0.011 0.637,-0.45 0.64,-0.865 C 0.008,3.675 0,1.837 0,0" /></g><g
           transform="translate(158.8564,113.3435)"
           id="g56"><path
             id="path58"
             style="fill:#000000;fill-opacity:1;fill-rule:nonzero;stroke:none"
             d="m 0,0 c 0.547,5.545 1.105,11.016 1.146,16.526 0.039,5.059 0.164,10.12 0.125,15.178 -0.033,4.336 -0.193,8.672 -0.407,13.003 -0.054,1.113 0.225,1.27 1.269,1.265 3.791,-0.02 7.554,0.439 11.315,0.885 1.264,0.15 2.548,0.129 3.822,0.203 0.541,0.031 0.818,-0.064 0.669,-0.727 C 17.185,42.971 17.146,39.55 17.134,36.125 17.131,35.211 16.991,34.299 16.947,33.384 16.922,32.842 16.605,32.846 16.213,32.903 13.604,33.28 10.984,33.196 8.36,33.111 7.58,33.085 7.345,32.84 7.295,32.08 7.2,30.604 7.16,29.131 7.144,27.653 c -0.01,-0.918 0.46,-1.223 1.189,-1.246 1.437,-0.044 2.876,-0.03 4.313,0.018 0.838,0.028 1.353,-0.015 0.974,-1.11 -0.583,-1.685 -0.557,-3.461 -0.446,-5.213 0.043,-0.668 -0.138,-0.687 -0.7,-0.653 -4.832,0.29 -3.745,0.543 -4.084,-3.692 -0.077,-0.95 0.012,-1.912 -0.019,-2.867 -0.026,-0.768 0.337,-0.966 1.031,-0.874 1.894,0.251 3.79,0.484 5.687,0.713 0.674,0.081 1.065,-0.098 0.851,-0.908 C 15.043,8.417 15.552,4.998 15.917,1.594 16.124,-0.337 16.201,-0.282 14.289,-0.087 9.991,0.354 5.685,0.289 1.379,0.005 0.908,-0.026 0.434,0 0,0" /></g><g
           transform="translate(132.4736,86.2517)"
           id="g60"><path
             id="path62"
             style="fill:#000000;fill-opacity:1;fill-rule:nonzero;stroke:none"
             d="m 0,0 c -0.291,-4.426 -0.55,-8.849 -0.657,-13.289 -0.124,-5.156 0.24,-10.278 0.663,-15.387 0.26,-3.139 0.838,-6.316 2.037,-9.302 0.296,-0.734 0.393,-1.101 -0.716,-1.033 -2.478,0.154 -4.909,-0.378 -7.321,-0.893 -0.751,-0.161 -1.213,-0.256 -1.089,0.802 0.632,5.389 -0.006,10.746 -0.412,16.115 -0.433,5.732 -1.366,11.383 -2.459,17.014 -0.241,1.246 -0.551,2.481 -0.88,3.707 -0.142,0.525 -0.158,0.884 0.51,0.858 C -6.799,-1.552 -3.401,-0.768 0,0" /></g><g
           transform="translate(121.3613,96.4871)"
           id="g64"><path
             id="path66"
             style="fill:#000000;fill-opacity:1;fill-rule:nonzero;stroke:none"
             d="M 0,0 C 0,0.372 -0.019,0.812 0.003,1.25 0.185,4.917 3.43,7.182 6.974,6.135 7.845,5.878 8.469,5.314 8.8,4.525 10.05,1.548 10.429,-1.572 9.748,-4.72 9.209,-7.209 7.293,-8.214 4.279,-7.902 2.006,-7.669 0.34,-5.929 0.197,-3.648 0.123,-2.454 -0.158,-1.274 0,0" /></g><g
           transform="translate(107.6846,172.2854)"
           id="g68"><path
             id="path70"
             style="fill:#f8e184;fill-opacity:1;fill-rule:nonzero;stroke:none"
             d="m 0,0 c 3.078,0.443 6.152,0.919 9.236,1.324 10.076,1.324 20.186,1.923 30.35,1.411 7.596,-0.383 15.086,-1.391 22.376,-3.643 0.145,-0.045 0.274,-0.144 0.411,-0.219 -2.123,0.051 -4.161,0.63 -6.2,1.114 C 52.785,0.792 49.37,1.241 45.895,1.274 41.583,1.315 37.265,1.369 32.969,0.994 28.529,0.607 24.083,0.315 19.644,-0.089 15.881,-0.432 12.113,-0.823 8.325,-0.919 6.335,-0.969 4.36,-1.23 2.362,-0.922 1.479,-0.786 0.664,-0.628 0,0" /></g><g
           transform="translate(168.7891,199.4817)"
           id="g72"><path
             id="path74"
             style="fill:#f8e184;fill-opacity:1;fill-rule:nonzero;stroke:none"
             d="m 0,0 c -1.432,-2.898 -2.967,-5.739 -5.048,-8.234 -2.808,-3.367 -5.067,-3.375 -7.786,0.021 -3.433,4.29 -5.538,9.29 -7.473,14.368 -0.369,0.967 -0.632,1.977 -1.037,2.928 -0.348,0.819 -0.285,1.326 0.682,1.527 0.258,0.054 0.484,0.257 0.725,0.39 2.374,-2.836 3.324,-6.361 4.745,-9.668 1.41,-3.283 3.247,-6.304 6.418,-8.252 1.489,-0.915 2.111,-0.767 2.99,0.762 1.268,2.207 2.437,4.49 4.808,5.782 C -0.662,-0.205 -0.395,0.051 0,0" /></g><g
           transform="translate(142.4687,209.5872)"
           id="g76"><path
             id="path78"
             style="fill:#f8e184;fill-opacity:1;fill-rule:nonzero;stroke:none"
             d="m 0,0 c -0.808,-2.591 -2.122,-4.952 -3.376,-7.334 -1.839,-3.494 -3.784,-6.924 -6.641,-9.729 -2.469,-2.425 -4.176,-2.535 -6.883,-0.364 -1.217,0.977 -2.258,2.124 -3.003,3.514 1.712,0.623 3.125,-0.15 4.433,-1.067 2.389,-1.678 3.134,-1.652 5.172,0.456 2.125,2.198 3.476,4.923 5.074,7.48 1.137,1.817 2.224,3.668 3.543,5.364 0.49,0.63 1.016,1.224 1.681,1.68" /></g><g
           transform="translate(176.0566,189.1204)"
           id="g80"><path
             id="path82"
             style="fill:#f7e084;fill-opacity:1;fill-rule:nonzero;stroke:none"
             d="M 0,0 C -0.012,-0.038 -0.013,-0.087 -0.038,-0.113 -0.634,-0.728 -1.123,-1.621 -2.147,-1.418 -3.135,-1.223 -3.46,-0.308 -3.73,0.526 -4.565,3.107 -4.658,5.772 -4.534,8.455 -3.78,7.168 -3.577,5.696 -3.137,4.305 -2.813,3.28 -2.515,2.249 -1.96,1.318 -1.516,0.573 -0.986,-0.056 0,0" /></g><g
           transform="translate(120.8887,194.7044)"
           id="g84"><path
             id="path86"
             style="fill:#f8e183;fill-opacity:1;fill-rule:nonzero;stroke:none"
             d="m 0,0 c 1.102,-1.659 2.185,-3.328 3.798,-4.564 2.705,-2.071 4.934,-2.062 7.56,0.116 2.685,2.228 4.554,5.115 6.321,8.065 2.235,3.73 4.088,7.655 5.796,11.65 0.139,0.328 0.326,0.645 0.27,1.025 0.64,0.819 1.374,0.71 2.147,0.216 -1.558,-0.48 -1.563,-0.481 -0.998,-2.169 1.797,-5.378 3.834,-10.653 6.782,-15.528 0.89,-1.474 1.907,-2.854 3.162,-4.048 2.206,-2.098 4.556,-2.288 7.035,-0.527 1.958,1.391 3.353,3.293 4.632,5.28 0.864,1.34 1.658,2.726 2.493,4.106 0.384,-0.135 0.154,-0.458 0.151,-0.687 -0.03,-2.642 -0.005,-5.282 0.729,-7.845 0.445,-1.556 1.012,-3.174 2.828,-3.535 1.915,-0.38 2.953,1.043 3.951,2.374 0.162,0.217 0.322,0.436 0.66,0.896 -0.193,-1.656 -0.364,-3.038 -0.514,-4.423 -0.165,-1.508 -0.342,-3.016 -0.452,-4.529 -0.054,-0.728 -0.246,-0.829 -0.955,-0.596 -11.035,3.622 -22.387,5.385 -33.972,5.875 -9.049,0.383 -18.039,-0.118 -26.989,-1.457 -0.156,-0.023 -0.318,-0.005 -0.477,-0.006 -0.124,0.497 0.228,0.819 0.452,1.177 1.493,2.387 3.075,4.719 4.132,7.359 C -1.176,-1.07 -0.859,-0.283 0,0" /></g><g
           transform="translate(113.1611,181.9866)"
           id="g88"><path
             id="path90"
             style="fill:#f8e183;fill-opacity:1;fill-rule:nonzero;stroke:none"
             d="m 0,0 c 3.312,0.761 6.69,1.073 10.06,1.4 7.85,0.762 15.714,0.832 23.579,0.248 9.904,-0.735 19.623,-2.456 29.071,-5.583 0.789,-0.261 1.12,-0.557 0.985,-1.51 -0.251,-1.775 -0.294,-3.58 -0.381,-5.375 -0.032,-0.659 -0.163,-0.821 -0.835,-0.527 -9.14,3.999 -18.828,5.352 -28.68,5.827 -12.298,0.593 -24.5,-0.385 -36.632,-2.373 -0.719,-0.117 -1.175,-0.1 -0.977,0.825 0.108,0.502 0.148,1.019 0.219,1.529 C -2.694,-3.498 -1.635,-1.562 0,0" /></g></g></g></g></svg>