<?xml version="1.0" encoding="UTF-8" standalone="no"?>
<svg
   xmlns:dc="http://purl.org/dc/elements/1.1/"
   xmlns:cc="http://creativecommons.org/ns#"
   xmlns:rdf="http://www.w3.org/1999/02/22-rdf-syntax-ns#"
   xmlns:svg="http://www.w3.org/2000/svg"
   xmlns="http://www.w3.org/2000/svg"
   viewBox="0 0 386.66666 458.66666"
   height="458.66666"
   width="386.66666"
   xml:space="preserve"
   id="svg2"
   version="1.1"><metadata
     id="metadata8"><rdf:RDF><cc:Work
         rdf:about=""><dc:format>image/svg+xml</dc:format><dc:type
           rdf:resource="http://purl.org/dc/dcmitype/StillImage" /></cc:Work></rdf:RDF></metadata><defs
     id="defs6"><clipPath
       id="clipPath18"
       clipPathUnits="userSpaceOnUse"><path
         id="path16"
         d="M 0,344 H 290 V 0 H 0 Z" /></clipPath></defs><g
     transform="matrix(1.3333333,0,0,-1.3333333,0,458.66667)"
     id="g10"><g
       id="g12"><g
         clip-path="url(#clipPath18)"
         id="g14"><g
           transform="translate(243.0928,216.7881)"
           id="g20"><path
             id="path22"
             style="fill:#000000;fill-opacity:1;fill-rule:nonzero;stroke:none"
             d="m 0,0 c -10.663,-15.011 -21.311,-30.034 -31.996,-45.028 -6.267,-8.793 -12.575,-17.557 -18.914,-26.297 -1.423,-1.962 -1.883,-3.752 -1.443,-6.363 1.015,-6.01 2.946,-11.885 3.002,-18.052 -7.77,4.331 -16.537,3.001 -24.829,4.355 -2.205,3.212 -2.613,7.071 -3.779,10.659 -0.536,1.651 -0.676,3.995 -3.069,1.256 -0.642,-0.733 -1.739,-1.144 -2.68,-0.416 -0.996,0.771 -0.475,1.851 -0.137,2.722 0.731,1.885 0.824,2.691 -1.585,1.572 -2.402,-1.116 -4.978,-1.823 -7.691,-0.971 -0.691,0.327 -1.177,0.807 -1.211,1.623 21.127,13.931 34.355,34.758 48.103,55.129 1.867,2.768 3.621,5.708 4.725,8.781 4.237,11.791 12.595,20.634 20.721,29.614 3.475,3.841 5.865,7.504 3.07,12.664 0.155,1.073 0.693,1.855 1.721,2.263 2.212,-0.079 2.927,-1.893 3.871,-3.397 3.512,-5.6 6.368,-11.532 8.87,-17.641 C -2.015,9.566 -1.176,6.512 0.07,3.605 0.546,2.394 0.688,1.187 0,0" /></g><g
           transform="translate(169.0254,125.9287)"
           id="g24"><path
             id="path26"
             style="fill:#f7e084;fill-opacity:1;fill-rule:nonzero;stroke:none"
             d="m 0,0 c 2.637,-0.747 5.173,0.328 7.757,0.486 6.387,0.393 12.132,-0.967 16.96,-5.367 1.319,-0.081 2.639,-0.161 3.959,-0.242 -1.16,-3.223 -4.024,-2.069 -6.211,-2.222 -3.003,-0.21 -4.19,-1.552 -3.801,-4.44 1.581,-11.741 0.807,-23.439 -0.99,-35.063 -0.328,-2.122 0.925,-0.727 1.033,-0.721 4.137,0.218 8.272,0.11 12.406,0.026 1.615,0.025 3.225,-0.041 4.805,-0.389 0.488,-0.118 0.955,-0.31 1.396,-0.548 3.919,-1.699 7.737,-3.606 11.834,-0.098 1.498,1.283 3.419,-0.026 5.183,-0.259 3.173,-0.42 6.865,-3.543 9.487,1.101 1.313,3.998 0.296,8.228 1.244,12.259 1.032,2.094 2.077,4.168 3.929,0.567 l 0.006,-0.004 c 1.608,-1.673 0.575,-4.237 2.013,-5.968 1.931,-6.48 3.258,-13.058 2.972,-19.862 -0.358,-8.57 -2.313,-16.486 -7.95,-23.418 -2.666,-3.278 -5.729,-5.334 -9.543,-6.39 -2.523,-0.698 -5.233,-0.992 -7.535,1.063 -0.85,0.76 -2.134,1.095 -2.837,1.943 -1.92,2.314 -4.387,3.36 -7.048,2.281 -2.345,-0.951 -0.426,-3.668 -1.282,-5.403 -3.199,1.209 -1.951,4.045 -2.137,6.234 -0.385,4.551 -3.414,6.536 -7.775,4.966 -1.653,-0.595 -1.726,-1.794 -1.684,-3.167 0.055,-1.823 0.205,-3.659 -0.726,-5.355 -0.767,-0.846 -1.563,-1.589 -2.795,-0.804 -2.027,6.018 -1.358,12.157 -0.491,18.219 0.456,3.186 3.258,4.313 6.154,5.094 4.402,1.185 6.166,4.701 4.771,9.023 -0.279,0.863 -0.75,1.386 -1.574,1.755 -5.134,2.301 -12.186,-0.76 -13.942,-6.107 -0.893,-2.717 -1.176,-5.528 -1.178,-8.379 -0.003,-4.666 0.048,-9.333 -0.028,-13.998 -0.032,-1.967 0.231,-4.045 -1.333,-5.67 -0.619,-0.043 -1.237,-0.085 -1.857,-0.128 -2.629,3.179 -2.382,7.1 -2.568,10.818 -0.263,5.286 -0.24,10.598 -0.015,15.886 0.167,3.901 -1.021,5.369 -4.836,3.656 -2.056,-1.147 -1.218,-3.204 -1.567,-4.895 -0.335,-1.628 0.104,-4.021 -2.908,-3.4 -1.44,0.7 -2.785,1.63 -4.42,1.88 -2.295,0.473 -3.46,2.781 -5.635,3.459 -0.382,0.252 -0.699,0.57 -0.953,0.949 -1.255,3.235 -3.726,2.769 -6.14,1.84 -1.362,-0.523 -2.52,-1.556 -3.785,-2.34 -0.442,-0.176 -0.896,-0.211 -1.362,-0.137 -1.048,0.54 -2.085,1.104 -3.157,1.61 -1.75,3.728 -0.55,6.911 2.083,9.613 0.802,0.824 1.833,1.37 2.073,2.618 -0.253,9.144 -0.813,18.265 -0.541,27.403 0.054,1.826 -0.049,3.665 0.493,5.446 0.493,1.621 1.575,2.496 3.272,2.564 1.898,0.077 3.173,-0.755 3.741,-2.608 0.494,-1.617 0.536,-3.285 0.502,-4.945 -0.157,-7.642 0.547,-15.309 -0.653,-22.92 -0.078,-0.493 -0.116,-0.998 -0.067,-1.493 0.116,-1.152 0.106,-2.527 1.627,-2.682 1.617,-0.165 1.767,1.225 1.92,2.365 0.267,1.993 0.098,3.997 -0.184,5.971 -0.851,5.96 -0.639,11.951 -0.63,17.937 0.002,1.331 0.023,2.672 0.347,3.97 0.547,2.191 1.365,4.3 4.086,4.272 2.966,-0.032 3.379,-2.419 3.426,-4.6 0.175,-8.145 0.451,-16.296 -0.199,-24.437 -0.156,-1.945 -0.904,-3.968 0.696,-5.68 3.996,-0.975 8.136,-1.494 11.708,-3.77 1.07,-0.681 1.871,-0.314 2.45,0.729 1.461,6.598 -0.025,12.885 -2.449,18.888 -1.274,3.153 -1.517,5.63 0.988,8.102 0.944,0.931 1.688,2.061 2.161,3.311 3.114,8.224 3.651,13.466 -7.777,13.626 -3.95,0.054 -7.955,-0.077 -11.692,1.626 C -5.905,-1.121 -4.839,-0.437 0,0" /></g><g
           transform="translate(105.8203,41.0547)"
           id="g28"><path
             id="path30"
             style="fill:#030303;fill-opacity:1;fill-rule:nonzero;stroke:none"
             d="m 0,0 c -16.404,-1.387 -32.614,-0.355 -48.177,5.272 -20.362,7.363 -31.883,22.567 -36.588,43.269 -3.281,14.44 -3.146,29.052 -1.467,43.677 0.697,6.073 0.653,11.769 -1.164,17.954 -7.347,25 -4.5,48.357 13.71,68.421 4.048,4.46 8.607,8.363 13.696,11.562 2.234,1.404 2.969,2.802 2.791,5.582 -0.775,12.101 0.728,23.988 5.673,35.133 9.626,21.696 27.267,32.38 50.167,34.993 18.453,2.106 36.878,0.283 55.266,-1.528 2.32,-0.228 4.772,0.034 6.947,-0.634 7.35,-2.258 13.093,0.198 18.499,5.116 5.268,4.793 11.046,9.017 16.132,14.038 1.703,1.681 2.881,3.233 2.633,6 -0.358,3.986 1.755,5.94 5.498,6.091 3.161,0.127 5.114,-1.427 5.543,-4.411 0.513,-3.567 -1.114,-6.109 -4.966,-6.498 -3.668,-0.371 -3.592,-3.522 -4.874,-5.577 -0.971,-1.558 -2.716,-3.733 -1.518,-5.227 0.644,-0.803 2.951,1.401 4.456,2.323 1.981,1.215 3.906,2.529 5.805,3.872 2.455,1.734 5.211,2.797 4.342,7.176 -0.71,3.58 2.679,6.278 6.186,6.333 3.542,0.054 6.284,-2.498 6.585,-6.129 0.306,-3.72 -1.609,-6.655 -5.41,-6.973 -3.96,-0.33 -4.26,-3.479 -5.663,-5.883 -1.016,-0.821 -1.762,-0.371 -2.416,0.504 -0.42,1.786 -1.239,1.968 -2.772,0.94 -2.748,-1.844 -5.58,-3.575 -8.519,-5.102 -1.935,-1.005 -4.017,-1.981 -5.963,-0.097 -1.733,1.676 -0.992,3.668 -0.379,5.578 0.202,0.63 0.444,1.247 0.868,1.772 -0.767,-0.185 -0.934,-1.015 -1.523,-1.41 -0.546,-0.367 -1.011,-0.866 -1.574,-1.209 -3.094,-1.885 -3.779,-3.953 -0.613,-6.451 0.518,-0.409 0.635,-1.141 0.711,-1.814 -0.057,-1.465 -0.817,-2.288 -2.263,-2.485 -1.277,-0.05 -2.398,0.428 -3.479,1.03 -2.957,3.102 -5.042,0.548 -7.254,-1.139 -1.642,-0.966 -2.572,-2.58 -3.672,-4.045 -1.467,-1.685 -3.393,-2.295 -5.543,-2.399 -9.827,0.178 -19.535,1.787 -29.33,2.414 -14.44,0.924 -28.929,2.412 -43.299,0.2 -31.056,-4.778 -48.177,-26.473 -48.733,-57.006 -0.013,-0.664 0.056,-1.332 0.118,-1.995 0.731,-7.797 -1.565,-13.294 -8.573,-18.341 -24.679,-17.773 -30.954,-44.245 -21.157,-74.381 1.109,-3.411 1.655,-6.617 1.145,-10.231 C -82.123,84.049 -82.614,69.706 -80.407,55.49 -75.898,26.451 -58.623,10.175 -29.424,6.265 -21.771,5.24 -14.136,5.576 -6.496,5.229 -5.699,5.187 -4.925,5.03 -4.178,4.751 -2.503,3.422 0.1,2.896 0,0" /></g><g
           transform="translate(217.9355,316.1387)"
           id="g32"><path
             id="path34"
             style="fill:#100502;fill-opacity:1;fill-rule:nonzero;stroke:none"
             d="M 0,0 C 0.368,-0.894 1.114,-1.124 1.986,-1.132 1.903,-1.783 1.82,-2.434 1.736,-3.084 2.345,-5.972 1.02,-8.625 0.719,-11.403 c -0.61,-5.635 1.438,-7.998 7.026,-8.378 7.772,-0.53 15.138,1.482 22.527,3.363 2.274,0.463 4.287,1.393 5.755,3.28 0.351,0.551 0.665,1.131 1.06,1.65 3.188,4.193 6.995,5.464 10.042,3.374 4.149,-2.848 5.056,-8.295 2.068,-12.529 -0.375,-0.531 -0.827,-1.009 -1.244,-1.512 -0.787,-0.875 -1.655,-1.938 -2.855,-1.807 -4.489,0.49 -5.89,-2.609 -7.505,-5.847 -3.268,-6.551 -6.694,-13.034 -7.867,-20.362 -0.459,-2.873 -1.363,-6.041 2.034,-8.008 3.348,-1.081 6.704,-0.761 10.059,-0.105 3.417,0.575 7.01,0.744 9.244,4.038 0.354,0.348 0.72,0.683 1.058,1.045 2.463,2.641 5.592,3.325 8.594,1.68 2.821,-1.545 2.764,-4.696 2.367,-7.582 -0.513,-3.721 -3.267,-4.661 -6.445,-4.972 -0.491,-0.048 -0.995,0.051 -1.492,0.082 -6.016,0.095 -8.262,-4.759 -11.24,-8.616 -0.593,-0.769 -1.145,-1.882 -0.046,-2.621 1.25,-0.841 2.266,0.006 2.913,1.028 1.541,2.434 3.134,4.731 6.373,4.951 6.7,0.244 10.373,-3.139 9.85,-9.133 -0.243,-2.795 -1.337,-5.321 -3.989,-6.43 -2.769,-1.158 -5.97,-1.914 -8.355,0.666 -2.008,2.171 -3.395,1.303 -5.343,0.072 -7.158,-4.523 -13.746,-9.773 -20.151,-15.275 0.017,1.154 -0.565,2.082 -1.135,3.016 0.954,1.661 2.454,2.778 3.904,3.948 3.196,1.965 2.525,4.462 1.301,7.339 -8.07,18.949 -19.15,35.993 -32.251,51.816 -5.205,6.286 -11.059,11.919 -16.737,17.738 -1.465,1.502 -3.456,2.716 -3.512,5.198 1.288,0.12 2.309,0.537 2.315,2.083 0.359,0.363 0.783,0.495 1.281,0.361 10.514,-8.783 19.524,-18.982 27.877,-29.789 10.737,-13.889 19.651,-28.849 26.434,-45.064 0.541,-1.295 0.558,-3.909 3.167,-2.26 1.796,1.135 3.967,2.345 1.9,5.066 -2.562,3.373 -2.116,6.813 -0.135,10.263 1.83,2.127 3.172,4.674 5.462,6.411 -2.717,0.069 -5.429,-0.146 -8.144,-0.209 -4.776,-0.11 -8.879,0.996 -11.566,5.328 -1.428,2.805 -1.462,5.698 -0.756,8.716 2.632,11.262 7.094,21.672 14.15,30.896 1.244,1.586 2.636,0.506 4.028,0.271 3.727,-0.629 4.61,0.341 4.337,4.591 -3.497,3.033 -4.208,2.955 -6.621,-0.741 -0.161,-1.561 -0.436,-3.066 -1.761,-4.127 -11.46,-5.629 -23.54,-8.201 -36.221,-6.437 -5.183,0.72 -7.488,4.207 -7.781,9.567 -0.165,3.004 -0.041,5.996 0.854,8.905 C -3.397,-4.018 -3.408,-0.829 0,0" /></g><g
           transform="translate(105.8203,41.0547)"
           id="g36"><path
             id="path38"
             style="fill:#f7e084;fill-opacity:1;fill-rule:nonzero;stroke:none"
             d="m 0,0 c -1.269,1.324 -2.537,2.647 -3.805,3.971 -1.488,1.906 -2.467,4.22 -4.552,5.652 -0.855,0.881 -1.757,1.723 -2.261,2.879 -0.651,1.757 -0.49,3.598 -0.587,5.412 0.32,2.307 -1.62,4.006 -1.694,6.184 -0.082,2.413 -0.051,4.957 3.326,4.952 2.426,-0.005 2.422,-0.164 2.624,1.937 0.255,2.651 1.249,4.212 4.2,2.79 1.387,-0.668 2.886,-1.297 4.312,-0.54 5.645,2.995 11.726,1.929 17.669,2.006 2.578,0.034 5.666,0.617 6.95,-2.57 1.255,-3.115 -1.288,-4.856 -3.026,-6.812 -1.098,-1.116 -1.798,-2.381 -1.505,-4.026 0.7,-5.789 1.678,-11.528 2.525,-17.286 C 24.603,1.654 25.433,-1.403 23.102,-4 20.476,-4.037 17.829,-3.876 15.228,-4.151 9.572,-4.751 4.625,-3.034 0,0" /></g><g
           transform="translate(205.04,18.8203)"
           id="g40"><path
             id="path42"
             style="fill:#040303;fill-opacity:1;fill-rule:nonzero;stroke:none"
             d="m 0,0 c -2.95,-0.24 -5.87,-0.971 -8.81,-1.431 -5.31,-0.83 -8.8,1.761 -10.24,6.991 -1.14,4.179 -0.39,8.6 -1.92,12.69 -0.02,5.46 -0.051,10.92 -0.07,16.37 0,1.989 -0.12,3.98 0.05,5.96 1.04,12.699 4.34,14.489 17.64,13.6 1.54,-0.1 1.93,-0.861 1.89,-2.231 -0.1,-2.979 -0.18,-5.97 0.35,-8.929 0.27,-1.48 -0.52,-1.781 -1.911,-2.1 -10.25,-2.351 -10.269,-2.4 -10.119,-12.731 0.04,-3.299 0.3,-6.609 0.46,-9.91 -0.08,-2.509 0.57,-4.869 1.51,-7.17 0.76,-1.819 2.07,-2.979 4,-3.33 2.44,-0.439 3.34,0.95 3.3,3.111 -0.04,1.67 0.54,4.16 -2.53,3.45 -4.32,-0.99 -4.41,1.93 -4.75,4.74 0.25,2.34 0.1,4.659 -0.49,6.92 -0.55,2.13 0.09,3.21 2.36,3.14 0.17,0 0.34,0 0.5,0.009 9.25,0.651 9.23,0.651 9.86,-8.87 0.08,-1.29 -0.12,-2.67 0.69,-3.84 C 1.68,12.109 2.33,7.84 3.1,3.609 3.59,0.88 2.479,0.199 0,0" /></g><g
           transform="translate(128.9224,37.0547)"
           id="g44"><path
             id="path46"
             style="fill:#030303;fill-opacity:1;fill-rule:nonzero;stroke:none"
             d="m 0,0 c 0.463,7.496 -1.696,14.711 -2.373,22.084 -0.149,1.637 -0.367,3.267 -0.553,4.9 3.486,1.917 7.265,2.599 11.194,2.666 0.517,-0.176 0.911,-0.504 1.184,-0.971 0.16,-0.49 0.207,-0.994 0.15,-1.504 C 8.946,22.206 9.603,17.216 9.44,12.235 9.42,11.607 9.405,10.453 9.876,10.493 c 1.073,0.093 0.76,1.254 0.813,1.999 0.119,1.661 0.016,3.324 -0.223,4.979 -1.157,7.987 0.387,9.849 8.615,10.427 0.294,-0.084 0.591,-0.149 0.893,-0.198 2.323,-7.668 2.53,-15.321 -0.448,-22.857 -0.771,-1.952 -2.352,-3.615 -1.694,-5.957 3.387,-5.241 5.517,-10.884 6.005,-17.178 0.227,-2.915 0.055,-4.995 -3.608,-4.858 -0.789,0.029 -1.64,-0.308 -2.385,-0.645 -2.315,-1.047 -3.18,-0.622 -3.003,2.156 0.354,5.549 -0.488,10.929 -3.426,15.806 -0.514,0.852 -1.029,1.709 -1.632,2.497 -0.271,0.356 -0.834,0.833 -1.135,0.755 -0.884,-0.23 -0.387,-1.062 -0.342,-1.569 0.351,-3.972 0.682,-7.951 1.218,-11.901 0.653,-4.808 0.737,-4.798 -4.169,-6.256 C 0.904,-23.629 1.022,-23.626 0.883,-18.91 0.697,-12.604 0.304,-6.303 0,0" /></g><g
           transform="translate(172.9668,68.9971)"
           id="g48"><path
             id="path50"
             style="fill:#030203;fill-opacity:1;fill-rule:nonzero;stroke:none"
             d="m 0,0 c 0.496,0 0.998,0.048 1.488,-0.009 2.263,-0.262 5.066,2.156 6.44,0.381 1.089,-1.407 0.026,-4.401 0.1,-6.685 0.279,-8.585 -0.272,-17.212 1.223,-25.741 -0.05,-4.691 1.367,-9.194 1.749,-13.824 0.096,-1.162 1.287,-3.5 -1.508,-3.044 -2.132,0.348 -5.221,-2.312 -6.331,1.658 -0.623,2.229 -0.956,4.536 -1.531,6.78 -0.234,0.915 -0.762,1.755 -1.156,2.629 -0.891,-0.933 -0.449,-2.082 -0.378,-3.095 0.25,-3.653 0.552,-7.307 1.021,-10.937 0.223,-1.729 -0.055,-2.352 -1.976,-2.219 -2.244,0.155 -5.257,-1.036 -6.584,0.035 -1.564,1.26 -0.306,4.383 -0.517,6.691 -0.439,4.803 -0.793,9.613 -1.182,14.421 -2.768,4.279 -2.129,9.107 -2.234,13.816 0.098,1.641 -0.401,3.197 -0.647,4.79 -0.833,5.406 0.032,6.59 5.175,7.299 1.8,0.326 3.059,-0.426 3.923,-1.966 1.744,-2.29 2.552,-4.934 2.849,-7.747 0.109,-1.039 0.367,-2.146 -0.435,-3.078 0.944,0.973 0.613,2.191 0.461,3.266 C -0.83,-11.044 -0.749,-5.524 0,0" /></g><g
           transform="translate(235.2646,90.9453)"
           id="g52"><path
             id="path54"
             style="fill:#050405;fill-opacity:1;fill-rule:nonzero;stroke:none"
             d="m 0,0 c -0.437,-4.517 0.529,-9.178 -1.395,-13.541 -6.116,-4.394 -13.207,-1.641 -14.425,5.604 -0.384,2.285 -0.824,4.571 -0.677,6.904 0.139,2.196 0.904,3.889 3.479,3.956 1.635,-0.225 3.277,-0.489 4.899,-0.844 1.65,-0.36 2.563,-1.369 2.651,-3.139 0.044,-0.881 -0.595,-1.733 -0.075,-2.615 -0.09,0.841 0.176,1.647 0.249,2.472 0.21,2.365 -0.513,3.863 -3.21,3.915 -1.314,0.024 -2.658,0.25 -3.821,1.038 -3.35,4.929 -3.424,17.369 -0.148,22.146 2.315,5.003 2.988,5.333 9.894,4.86 5.236,-0.36 5.235,-0.36 5.167,-5.525 C 2.576,24.4 2.584,23.568 2.576,22.737 2.528,17.785 2.523,17.847 -2.334,17.46 -3.917,17.334 -5.925,17.341 -6.173,15.105 -6.409,12.98 -6.727,10.545 -4.312,9.403 -2.609,8.598 -1.003,7.896 -0.212,6.067 1.262,4.094 0.388,2.038 0,0" /></g><g
           transform="translate(205.918,119.0742)"
           id="g56"><path
             id="path58"
             style="fill:#060404;fill-opacity:1;fill-rule:nonzero;stroke:none"
             d="m 0,0 c 2.354,3.296 5.838,2.793 9.19,2.732 4.723,0.675 5.894,-2.243 5.898,-6.049 0.006,-6.408 0.536,-8.416 -4.564,-9.26 -3.858,-0.638 -4.085,-2.32 -1.281,-5.372 4.039,-4.396 5.463,-18.076 2.394,-23.002 -2.132,-3.422 -5.658,-3.746 -11.52,-1.058 l 0.034,-0.018 c -4.096,2.025 -6.311,12.093 -3.429,15.594 1.425,1.733 7.282,0.943 8.888,-1.237 0.396,-0.536 0.447,-1.229 0.363,-1.904 0.206,0.624 0.079,1.247 -0.093,1.838 -0.396,1.362 -1.524,1.616 -2.734,1.681 -1.614,0.087 -2.788,0.856 -3.701,2.175 C -3.761,-19.251 -3.447,-4.997 0,0" /></g><g
           transform="translate(200.7021,77.1367)"
           id="g60"><path
             id="path62"
             style="fill:#070404;fill-opacity:1;fill-rule:nonzero;stroke:none"
             d="m 0,0 c -4.301,-0.035 -8.602,-0.03 -12.9,-0.126 -1.645,-0.036 -2.246,0.306 -2.086,2.222 1.041,12.538 1.689,25.094 0.534,37.665 -0.195,2.127 0.476,2.939 2.68,3.02 2.929,0.107 5.949,-0.362 8.771,0.888 1.401,0.011 2.802,0.022 4.203,0.033 2.638,-3.755 1.141,-7.712 0.279,-11.488 -0.572,-2.507 -3.25,-2.441 -5.346,-2.834 -0.997,-0.188 -2.113,-0.459 -2.332,-1.553 -0.26,-1.294 1.064,-1.396 1.853,-1.91 3.426,-2.228 4.174,-6.101 1.109,-8.555 -4.078,-3.265 -1.93,-3.845 1.389,-4.448 1.698,-0.308 2.685,-1.335 2.533,-3.11 C 0.409,6.538 1.4,3.184 0,0" /></g><g
           transform="translate(265.7695,257.5698)"
           id="g64"><path
             id="path66"
             style="fill:#f6e184;fill-opacity:1;fill-rule:nonzero;stroke:none"
             d="m 0,0 c -1.77,-0.24 -3.52,-0.69 -5.34,-0.72 -3.889,-0.52 -7.79,-0.59 -11.68,0.05 -2.269,0.41 -2.669,2.1 -2.809,4.03 -0.25,3.53 0.559,6.87 1.63,10.18 2.29,7.09 5.5,13.75 9.069,20.27 0.901,1.64 1.551,3.3 4.03,1.86 1.731,-1 3.491,0.33 5.22,0.74 0.021,-0.65 0.051,-1.3 0.07,-1.95 C -0.239,32.71 1.681,30.01 -1.819,29.49 -4.46,24.57 -6.5,19.4 -7.569,13.94 -8.399,9.69 -5.739,6.28 -1.609,5.2 0,4.78 1.58,4.41 3.23,4.32 3.44,1.92 2.851,0.37 0,0" /></g><g
           transform="translate(200.7021,77.1367)"
           id="g68"><path
             id="path70"
             style="fill:#eede8e;fill-opacity:1;fill-rule:nonzero;stroke:none"
             d="m 0,0 c -0.239,2.137 -0.77,4.29 -0.652,6.408 0.19,3.469 0.781,6.729 -4.66,5.187 -1.804,-0.512 -2.071,1.225 -1.935,2.629 0.144,1.486 -0.66,3.72 2.039,3.645 4.417,-0.123 2.17,3.279 2.527,5.005 0.534,2.575 -1.727,1.551 -3.023,1.647 -1.598,0.12 -3.119,0.434 -2.762,2.553 0.285,1.697 0.119,3.722 2.931,3.692 1.929,-0.021 4.424,-1.118 5.696,0.317 1.493,1.685 0.58,4.419 0.93,6.681 0.3,1.938 0.094,3.956 0.111,5.938 1.618,0.051 2.227,-2.198 4.014,-1.764 -1.511,-6.03 -1.782,-12.11 -0.978,-18.28 0.469,-3.594 0.892,-6.946 5.757,-6.804 1.899,0.054 2.605,-1.163 2.322,-2.992 -0.05,-0.325 0.062,-0.684 -0.024,-0.995 -0.604,-2.202 1.932,-5.406 -1.568,-6.374 -0.613,-0.169 -0.498,3.799 -0.421,5.851 0.074,1.973 -0.66,2.733 -2.597,2.528 C 6.718,14.768 5.758,14.919 4.805,15.37 2.651,16.391 1.729,15.654 1.94,13.263 2.146,10.945 2.362,8.607 2.271,6.29 2.161,3.529 3.302,1.534 5.367,-0.09 3.578,-0.06 1.789,-0.03 0,0" /></g><g
           transform="translate(160.96,36.9873)"
           id="g72"><path
             id="path74"
             style="fill:#050404;fill-opacity:1;fill-rule:nonzero;stroke:none"
             d="m 0,0 c -0.232,-6.124 -0.066,-12.223 1.737,-18.136 0.606,-1.987 0.596,-3.219 -1.949,-3.013 -0.325,0.026 -0.661,-0.037 -0.987,-0.086 -4.982,-0.761 -4.847,-0.758 -4.987,4.038 -0.186,6.431 -0.365,12.88 -1.893,19.186 -2.453,2.816 -2.174,6.395 -2.648,9.741 -0.234,1.656 0.712,3.14 2.31,3.242 3.111,0.198 6.658,3.087 9.255,-1.117 C 0.625,9.232 2.23,4.5 0,0" /></g><g
           transform="translate(249.0215,298.9624)"
           id="g76"><path
             id="path78"
             style="fill:#f3e18c;fill-opacity:1;fill-rule:nonzero;stroke:none"
             d="m 0,0 c -7.893,-3.04 -16.045,-4.678 -24.516,-4.107 -5.456,0.367 -7.319,2.384 -7.316,7.82 0.001,3.607 0.715,7.145 2.482,10.379 5.347,-0.321 8.036,-2.778 8.19,-8.143 0.087,-3.018 1.18,-4.129 4.127,-4.015 4.626,0.178 9.26,0.142 13.89,0.197 C -1.079,2.917 0.062,2.347 0,0" /></g><g
           transform="translate(206.0352,77.0654)"
           id="g80"><path
             id="path82"
             style="fill:#eedd90;fill-opacity:1;fill-rule:nonzero;stroke:none"
             d="m 0,0 c 11.659,-2.52 11.672,1.077 11.775,10.136 0.029,2.485 -0.09,4.98 -0.285,7.459 -0.185,2.368 -0.627,4.505 -3.499,5.354 -2.765,0.819 -2.995,3.375 -2.65,5.717 0.383,2.603 2.737,2.983 4.638,2.55 4.014,-0.914 4.515,1.05 4.154,4.207 -0.112,0.984 -0.035,1.993 -0.013,2.989 0.124,5.467 0.128,5.467 -5.047,6.329 3.32,0.668 6.393,1.005 6.188,-3.94 -0.032,-0.769 0.902,-0.808 1.496,-1.025 -1.462,-6.008 -0.47,-12.112 -0.716,-18.167 -0.068,-1.684 1.529,-2.376 1.934,-3.742 0.737,-0.422 1.447,-1.045 0.911,-1.869 -0.479,-0.735 -1.401,-0.577 -2.163,-0.151 -1.559,0.169 -2.996,0.305 -2.76,-2.068 0.311,-3.126 0.471,-6.266 0.679,-9.402 0.238,-3.584 3.647,-5.076 8.904,-5.187 1.421,-0.03 2.859,0.745 4.289,1.149 0.241,-2.246 -1.409,-3.36 -2.987,-2.99 -2.315,0.544 -5.147,-0.34 -6.79,0.869 C 14.428,0.886 12.04,-0.555 9.482,-3.034 8.878,-3.62 7.974,-4.264 7.296,-3.582 5.534,-1.811 3.313,-2.217 1.214,-1.915 0.216,-1.772 0.069,-0.855 0,0" /></g><g
           transform="translate(161.3584,50.9541)"
           id="g84"><path
             id="path86"
             style="fill:#e7db98;fill-opacity:1;fill-rule:nonzero;stroke:none"
             d="m 0,0 c -3.18,2.26 -6.248,-0.652 -9.449,-0.273 -1.162,0.137 -0.575,-1.488 -0.43,-2.425 0.476,-3.092 1.666,-6.077 1.401,-9.28 -1.139,-2.833 -4.569,-1.043 -6.126,-3.036 -2.066,1.44 -3.449,2.575 -0.615,5.023 3.379,2.918 3.435,7.276 3.286,11.455 -0.146,4.113 -0.35,8.224 -0.529,12.337 2.399,3.59 5.961,5.13 9.387,4.191 2.432,-0.666 1.521,-2.533 1.621,-4.057 -6.266,1.012 -8.715,-1.011 -7.474,-6.14 0.44,-1.816 1.422,-3.009 3.376,-2.914 1.791,0.087 2.417,1.432 2.759,2.985 0.449,2.033 -0.351,4.336 1.313,6.107 3.251,1.454 3.874,-2.589 6.241,-2.984 C 0.349,9.18 0.187,8.856 0.858,3.538 1.044,2.076 1.176,0.608 1.333,-0.855 0.533,-1.123 0.164,-0.721 0,0" /></g><g
           transform="translate(271.0801,246.8872)"
           id="g88"><path
             id="path90"
             style="fill:#f6e184;fill-opacity:1;fill-rule:nonzero;stroke:none"
             d="m 0,0 c -2.242,-1.618 -4.648,-2.981 -5.446,-6.027 -0.804,-3.072 -3.398,-2.422 -5.266,-1.583 -2.234,1.004 -0.854,2.86 -0.094,4.215 2.143,3.824 5.428,6.637 8.658,9.503 C -0.277,7.767 0.715,5.994 2,5.258 1.306,3.516 -1.28,2.493 0,0" /></g><g
           transform="translate(161.3584,50.9541)"
           id="g92"><path
             id="path94"
             style="fill:#e1dcb3;fill-opacity:1;fill-rule:nonzero;stroke:none"
             d="m 0,0 1.333,-0.855 c 0.378,-4.688 0.756,-9.374 1.134,-14.061 -0.902,0.478 -1.724,1.196 -2.865,0.949 C -0.584,-9.302 -0.634,-4.642 0,0" /></g><g
           transform="translate(249.0215,298.9624)"
           id="g96"><path
             id="path98"
             style="fill:#f6e184;fill-opacity:1;fill-rule:nonzero;stroke:none"
             d="m 0,0 c -0.546,1.45 -1.669,2.048 -3.143,2.131 0.251,1.652 1.399,1.911 2.808,1.882 C 1.423,3.977 3.183,4.026 4.941,4.038 5.602,-0.132 2.337,0.501 0,0" /></g><g
           transform="translate(235.2646,90.9453)"
           id="g100"><path
             id="path102"
             style="fill:#f7f4d5;fill-opacity:1;fill-rule:nonzero;stroke:none"
             d="M 0,0 C -0.07,2.022 -0.141,4.045 -0.212,6.067 3.042,5.189 2.896,2.631 2.752,0.073 1.809,1.021 0.865,1.99 0,0" /></g><g
           transform="translate(240.0352,85.0469)"
           id="g104"><path
             id="path106"
             style="fill:#f7f4d5;fill-opacity:1;fill-rule:nonzero;stroke:none"
             d="M 0,0 C -2.014,1.537 -2.145,3.708 -2.013,5.968 1.696,5.003 -0.75,1.963 0,0" /></g><g
           transform="translate(194.6621,305.8423)"
           id="g108"><path
             id="path110"
             style="fill:#f6e184;fill-opacity:1;fill-rule:nonzero;stroke:none"
             d="m 0,0 c 10.232,-10.007 20.266,-20.196 28.807,-31.737 10.128,-13.684 18.916,-28.142 25.376,-43.944 1.861,-4.553 1.859,-4.554 -2.541,-7.254 -2.691,-1.273 -4.725,-0.982 -5.213,2.393 -0.226,1.56 -1.365,2.483 -2.104,3.687 -3.839,7.15 -6.669,14.866 -11.895,21.239 -5.825,5.7 -9.749,12.893 -14.977,19.078 -3.069,3.631 -7.211,6.491 -8.777,11.303 -2.052,4.263 -4.972,7.662 -9.455,9.507 -5.04,3.121 -8.928,7.446 -12.561,12.036 -0.617,2.308 1.355,2.707 2.655,3.601 2.865,0.23 5.387,2.614 8.488,1.343 C -1.465,0.834 -0.732,0.417 0,0" /></g><g
           transform="translate(203.9785,280.8306)"
           id="g112"><path
             id="path114"
             style="fill:#150903;fill-opacity:1;fill-rule:nonzero;stroke:none"
             d="m 0,0 c 6.877,-8.604 14.433,-16.674 20.437,-25.963 0.969,-1.499 2.377,-2.753 2.676,-4.641 -0.353,-0.719 -0.707,-1.439 -1.06,-2.158 -4.651,5.983 -8.495,12.582 -13.795,18.07 -5.656,5.489 -10.668,11.575 -16.027,17.34 -1.913,2.06 -4.053,3.832 -6.254,5.552 -0.94,0.263 -1.873,0.554 -2.822,0.781 -0.926,0.222 -2.659,-0.369 -2.681,0.355 -0.05,1.556 1.599,0.682 2.494,0.927 0.944,0.259 0.93,0.657 0.348,1.237 -1.051,1.048 -2.731,0.301 -3.651,1.041 -0.559,0.448 2.699,1 0.794,2.632 -1.693,1.45 -2.919,3.619 -5.725,3.235 -0.898,-0.123 -1.988,-0.057 -2.756,0.74 2.259,-0.44 3.604,1.379 5.366,2.171 4.919,-2.925 8.214,-7.704 12.691,-11.133 C -6.058,7.363 -2.675,4.028 0,0" /></g><g
           transform="translate(238.9873,228.9873)"
           id="g116"><path
             id="path118"
             style="fill:#f6e184;fill-opacity:1;fill-rule:nonzero;stroke:none"
             d="M 0,0 C 1.222,-0.665 3.034,-0.952 2.923,-2.743 2.705,-6.25 5.037,-6.051 7.316,-6.08 6.072,-7.401 4.944,-8.884 2.971,-9.184 1.98,-6.123 0.99,-3.062 0,0" /></g><g
           transform="translate(150.1807,140.8223)"
           id="g120"><path
             id="path122"
             style="fill:#525252;fill-opacity:1;fill-rule:nonzero;stroke:none"
             d="m 0,0 c -0.266,-0.184 -0.513,-0.49 -0.799,-0.532 -1.968,-0.284 -3.96,-0.921 -5.875,0.221 1.759,0.813 3.545,1.524 5.541,1.405 C -0.755,0.729 -0.377,0.364 0,0" /></g><g
           transform="translate(101.9458,127.0693)"
           id="g124"><path
             id="path126"
             style="fill:#f6e186;fill-opacity:1;fill-rule:nonzero;stroke:none"
             d="M 0,0 C 2.14,2.685 4.323,5.312 7.941,6.057 14.01,10.248 20.053,9.979 26.074,5.949 29.901,3.154 34.47,1.256 37.02,-3.088 37.265,-4.155 36.537,-4.569 35.773,-4.96 35.149,-5.189 34.5,-5.327 33.833,-5.381 c -8.669,-0.691 -9.061,-0.658 -9.764,-9.04 -0.836,-9.957 -1.547,-19.905 -3.322,-29.753 -0.288,-1.593 -0.437,-3.625 1.872,-3.959 2.669,-0.386 2.816,1.709 2.968,3.59 0.121,1.492 0.013,3.005 0.397,4.471 0.36,1.369 0.959,2.545 2.633,2.5 1.666,-0.045 2.216,-1.27 2.53,-2.628 0.457,-1.969 0.289,-3.979 0.308,-5.975 0.016,-1.557 0.06,-3.146 2.174,-3.248 2.198,-0.104 2.835,1.327 2.942,3.202 0.141,2.496 -0.031,4.998 0.143,7.495 0.055,0.77 0.213,1.519 0.474,2.242 3.299,3.65 2.777,7.334 0.078,11.043 -0.333,1.447 -0.263,2.791 0.96,3.847 1.506,0.711 2.923,0.659 4.216,-0.48 1.987,-4.629 0.569,-9.505 1.034,-14.238 0.122,-1.782 0.19,-3.608 -0.075,-5.355 -0.623,-4.115 0.301,-7.22 4.655,-8.545 -0.162,-0.455 -0.288,-1.288 -0.492,-1.308 -3.216,-0.308 -4.135,-2.445 -3.43,-5.042 0.362,-1.335 -3.677,-2.415 -0.067,-3.514 0.064,-4.267 -3.775,-3.562 -6.089,-4.467 -1.647,-0.645 -2.79,0.556 -2.048,2.573 l -0.021,-0.02 c 0.473,0.547 1.663,0.743 1.221,1.689 -0.162,0.348 -1.183,-0.236 -1.847,-0.25 -3.082,0.188 -6.257,-1.57 -9.229,0.487 0.06,0.325 0.03,0.708 0.196,0.965 1.144,1.782 4.375,2.646 2.888,5.571 -1.392,2.739 -4.171,1.247 -6.317,1.397 -3.305,0.232 -6.638,0.053 -9.959,0.064 -1.498,0.004 -3.038,0.124 -4.326,-0.809 -2.912,-2.108 -5.671,-3.327 -8.744,-0.064 -1.098,1.166 -1.558,-0.165 -1.717,-1.211 -0.286,-1.88 0.433,-3.578 0.875,-5.337 0.141,-0.561 0.028,-1.56 -0.33,-1.785 -0.601,-0.38 -1.167,0.336 -1.622,0.803 -1.167,1.197 -2.013,3.952 -4.04,2.362 -1.72,-1.35 -1.552,-4.032 0.045,-5.814 1.192,-1.329 0.958,-2.724 1.04,-4.175 -0.668,-0.56 -1.312,-0.562 -1.926,0.087 -1.068,3.213 -2.566,6.334 -2.142,9.871 -2.095,2.728 0.305,6.388 -1.888,9.095 -0.007,7.642 -0.333,15.299 0.074,22.918 0.351,6.571 1.679,13.043 6.692,18.006 2.116,-1.753 1.619,-4.224 1.609,-6.458 -0.042,-9.911 0.61,-19.855 -1.056,-29.704 -0.535,-3.16 0.247,-4.898 3.838,-4.024 1.686,0.425 3.936,-0.597 4.984,1.42 1.109,2.135 -0.815,3.223 -2.044,4.551 -2.013,2.175 -1.083,5.527 -2.967,7.799 -0.278,0.798 -0.445,1.618 -0.412,2.454 0.065,1.659 -0.083,3.715 1.871,4.201 2.069,0.516 2.646,-1.502 3.386,-2.974 0.427,-0.849 0.282,-2.452 1.183,-2.431 0.707,0.016 0.687,1.696 1.064,2.609 0.632,1.532 1.185,3.697 3.053,3.448 2.346,-0.311 1.97,-2.787 1.971,-4.501 0.003,-4.157 -1.163,-8.236 -0.932,-12.429 0.098,-1.761 0.085,-3.462 2.495,-3.463 2.427,-0.002 3.974,1.2 3.624,3.663 -1.507,10.611 -0.568,21.278 -0.897,31.913 -0.067,2.18 -1,3.428 -3.306,3.48 -2.445,0.054 -3.629,-1.072 -3.854,-3.531 -0.234,-2.56 0.19,-6.643 -2.847,-6.567 -2.741,0.068 -2.047,4.324 -2.641,6.778 C 2.47,-9.801 2.59,-7.567 1.496,-5.613 0.997,-3.743 -1.27,-2.337 0,0" /></g><g
           transform="translate(150.0015,76.8574)"
           id="g128"><path
             id="path130"
             style="fill:#050304;fill-opacity:1;fill-rule:nonzero;stroke:none"
             d="m 0,0 c -2.193,0.76 -5.225,-0.823 -6.518,0.855 -0.906,1.178 0.347,3.954 0.494,6.026 0.138,1.949 0.091,3.911 0.125,5.867 0.86,4.911 0.692,9.905 0.213,14.775 -0.312,3.165 0.094,7.148 -4.896,8.479 -2.531,0.675 -1.858,4.263 -1.574,6.691 0.196,1.676 0.734,3.383 3.137,2.628 7.038,-0.353 14.075,-0.196 21.111,0.022 5.371,-0.381 10.768,-0.551 16.106,-1.198 5.915,-0.718 7.439,-2.793 6.632,-8.67 -0.591,-4.292 -1.695,-8.555 -5.208,-11.472 -1.708,-1.417 -1.335,-2.24 -0.497,-3.989 3.312,-6.902 4.976,-14.127 2.862,-21.791 -6.37,-0.812 -8.125,0.445 -8.379,6.146 -0.141,3.149 -0.015,6.305 -0.089,9.457 -0.012,0.497 -0.013,0.995 -0.019,1.493 C 23.151,14.84 23.443,14.325 23.438,13.832 23.418,11.842 23.45,9.85 23.425,7.858 23.345,1.143 23.34,1.143 16.784,0.246 13.847,-0.36 13.928,1.562 14.165,3.469 c 1.175,9.45 0.488,18.943 0.695,28.415 0.008,0.332 0.042,0.664 0.057,0.996 0.074,1.713 0.211,3.377 -2.334,3.399 -2.335,0.022 -2.162,-1.633 -2.215,-3.067 C 10.075,25.402 9.927,17.592 10.654,9.793 10.823,7.973 10.708,6.095 11.117,4.334 11.999,0.538 10.232,0.195 6.996,0.154 3.908,0.115 3.824,1.422 4.092,3.692 5.245,13.449 5.431,23.25 5.46,33.063 5.468,35.425 4.792,36.37 2.339,36.199 0.705,36.086 -0.032,35.687 -0.026,33.919 0.005,24.78 -0.529,15.637 0.494,6.508 0.734,4.364 2.058,2.016 0,0" /></g><g
           transform="translate(137.8755,65.0996)"
           id="g132"><path
             id="path134"
             style="fill:#e8da9d;fill-opacity:1;fill-rule:nonzero;stroke:none"
             d="m 0,0 c 0.202,-0.984 0.609,-2.284 1.684,-1.938 2.396,0.769 5.157,1.136 6.454,3.832 1.371,0.01 2.01,-0.693 1.989,-2.04 C 8.356,-1.033 6.667,-2.368 4.796,-2.709 1.429,-3.322 1.466,-5.132 2.233,-7.68 c 1.018,-3.381 1.269,-6.863 0.846,-10.36 -0.186,-1.532 -0.82,-3.195 -2.667,-3.012 -1.944,0.194 -1.244,2.127 -1.227,3.237 C -0.727,-11.871 -1.589,-5.874 0,0" /></g><g
           transform="translate(166.7852,77.1035)"
           id="g136"><path
             id="path138"
             style="fill:#e7da97;fill-opacity:1;fill-rule:nonzero;stroke:none"
             d="m 0,0 c 5.529,1.726 5.518,1.725 5.323,7.803 -0.111,3.477 -0.2,6.956 -0.247,10.435 -0.008,0.626 0.116,1.73 0.385,1.798 0.984,0.249 1.327,-0.697 1.688,-1.417 C 8.777,15.384 8.581,11.874 8.651,8.406 8.665,7.743 8.664,7.079 8.633,6.417 c -0.348,-7.414 -0.35,-7.414 6.57,-8.44 -0.551,-2.8 -2.111,-2.387 -3.89,-1.21 C 7.882,-0.961 4.207,0.445 0,0" /></g><g
           transform="translate(172.9668,68.9971)"
           id="g140"><path
             id="path142"
             style="fill:#e1d695;fill-opacity:1;fill-rule:nonzero;stroke:none"
             d="m 0,0 c -0.705,-6.511 1.321,-12.874 1.033,-19.356 -0.028,-0.625 0.613,-1.703 -0.607,-1.839 -0.234,-0.027 -0.71,0.989 -0.863,1.579 -0.916,3.512 -2.503,6.868 -2.488,10.596 1.521,-0.689 1.904,-0.191 2.007,1.444 C -0.759,-5.046 -2,-2.308 0,0" /></g><g
           transform="translate(217.9355,316.1387)"
           id="g144"><path
             id="path146"
             style="fill:#f6f6f0;fill-opacity:1;fill-rule:nonzero;stroke:none"
             d="m 0,0 c -1.403,-1.91 -2.454,-3.995 -3.127,-6.27 -5.669,-0.272 -11.061,-2.817 -16.856,-2.058 -0.32,0.09 -0.644,0.128 -0.975,0.115 -4.872,4.774 -4.87,4.772 0.323,9.218 1.759,1.506 3.506,3.026 5.258,4.539 0.473,-2.438 -1.584,-4.09 -1.972,-6.298 -0.233,-1.328 -0.841,-2.511 0.357,-3.649 1.304,-1.24 2.47,-0.29 3.635,0.224 4.1,1.81 7.752,4.372 11.482,6.815 0.779,0.51 1.619,2.203 2.799,0.933 C 1.739,2.69 0.199,1.927 0.076,0.989 0.033,0.662 0.024,0.33 0,0" /></g><g
           transform="translate(228.9023,327.228)"
           id="g148"><path
             id="path150"
             style="fill:#efefef;fill-opacity:1;fill-rule:nonzero;stroke:none"
             d="m 0,0 c -0.795,-1.892 -1.745,-4.019 -4.211,-4.058 -2.44,-0.038 -3.936,1.533 -3.937,4.084 -10e-4,2.771 1.722,4.37 4.255,4.441 C -1.313,4.541 -0.526,2.319 0,0" /></g><g
           transform="translate(212.8096,331.4673)"
           id="g152"><path
             id="path154"
             style="fill:#e2e2e2;fill-opacity:1;fill-rule:nonzero;stroke:none"
             d="m 0,0 c -0.427,-1.833 -0.869,-3.646 -3.131,-3.88 -2.024,-0.209 -3.178,1.084 -3.398,2.813 -0.293,2.299 1.668,3.081 3.399,3.443 C -1.461,2.726 -0.372,1.645 0,0" /></g><g
           transform="translate(192.4648,307.0942)"
           id="g156"><path
             id="path158"
             style="fill:#f6e184;fill-opacity:1;fill-rule:nonzero;stroke:none"
             d="m 0,0 c -2.818,-0.511 -5.354,-2.811 -8.487,-1.343 0.721,0.642 1.529,1.21 2.149,1.939 C -3.909,3.446 -1.844,3.059 0,0" /></g><g
           transform="translate(99.9849,45.1533)"
           id="g160"><path
             id="path162"
             style="fill:#f3e7b1;fill-opacity:1;fill-rule:nonzero;stroke:none"
             d="M 0,0 C -0.543,1.991 -2.85,3.389 -1.972,5.857 1.078,5.01 2.288,2.932 2.03,-0.128 1.354,-0.085 0.677,-0.042 0,0" /></g><g
           transform="translate(197.9521,307.811)"
           id="g164"><path
             id="path166"
             style="fill:#f6e184;fill-opacity:1;fill-rule:nonzero;stroke:none"
             d="m 0,0 c 4.984,2.097 14.055,3.204 16.856,2.058 -0.327,-2.451 -0.877,-4.896 -0.938,-7.354 -0.184,-7.199 2.901,-10.202 10.096,-10.53 9.443,-0.43 18.378,1.983 27.315,4.505 1.896,0.535 3.81,1.008 5.715,1.509 L 58.937,-9.7 c -2.112,-6.064 -6.13,-11.203 -8.354,-17.213 -1.426,-3.854 -3.062,-7.647 -4.211,-11.582 -1.063,-3.644 -1.528,-7.442 -0.285,-11.211 1.689,-3.609 4.598,-4.946 8.461,-4.639 1.477,0.117 2.973,0.061 4.457,0.011 4.195,-0.143 4.869,-1.453 2.582,-5.166 -0.521,-0.845 -1.081,-1.648 -1.395,-2.596 -1.534,-3.72 -2.336,-7.275 1.792,-10.024 1.825,-1.214 1.121,-2.263 -0.301,-3.415 -5.827,-4.718 -5.714,-4.713 -8.761,2.213 C 41.058,-46.361 24.008,-23.083 2.665,-2.877 1.712,-1.974 0.58,-1.245 0,0" /></g><g
           transform="translate(278.1836,238.6455)"
           id="g168"><path
             id="path170"
             style="fill:#f7f6f5;fill-opacity:1;fill-rule:nonzero;stroke:none"
             d="m 0,0 c 0.034,-3.448 -1.79,-5.53 -4.936,-5.634 -2.709,-0.089 -5.123,2.453 -5.238,5.516 -0.126,3.356 2.099,6.126 5.08,6.326 C -2.437,6.387 -0.033,3.458 0,0" /></g><g
           transform="translate(258.1445,245.7148)"
           id="g172"><path
             id="path174"
             style="fill:#e4d89e;fill-opacity:1;fill-rule:nonzero;stroke:none"
             d="m 0,0 c -0.362,1.601 0.464,2.671 1.314,3.968 1.08,1.646 0.596,3.225 -1.826,3.271 -2.635,0.05 -5.273,0.051 -7.91,0.03 -3.476,-0.028 -5.646,1.353 -5.683,5.122 C -8.756,6.063 -1.735,8.318 4.903,8.744 5.855,8.805 7.246,9.763 7.686,9.026 8.52,7.631 6.615,7.4 5.96,6.631 4.032,4.371 1.995,2.204 0,0" /></g><g
           transform="translate(256.9961,297.999)"
           id="g176"><path
             id="path178"
             style="fill:#f6e184;fill-opacity:1;fill-rule:nonzero;stroke:none"
             d="M 0,0 C 0.043,1.658 0.086,3.315 0.129,4.973 3.133,7.212 6.106,3.36 9.105,4.93 11.174,2.148 9.217,0.287 7.417,-1.312 5.672,-2.861 3.744,-2.308 2.119,-0.774 1.485,-0.175 0.766,0.146 -0.107,0.112 Z" /></g><g
           transform="translate(266.1016,302.9287)"
           id="g180"><path
             id="path182"
             style="fill:#f6e184;fill-opacity:1;fill-rule:nonzero;stroke:none"
             d="M 0,0 C -0.391,-1.109 0.295,-3.898 -2.22,-2.043 -4.354,-0.47 -6.655,-0.403 -8.977,0.043 -5.95,4.585 -3.002,4.571 0,0" /></g><g
           transform="translate(272.9482,261.8467)"
           id="g184"><path
             id="path186"
             style="fill:#f2f2f5;fill-opacity:1;fill-rule:nonzero;stroke:none"
             d="M 0,0 C 2.262,1.69 4.417,1.658 5.873,-0.89 7.146,-3.117 5.642,-5.24 2.063,-6.749 1.223,-4.546 1.237,-2.082 0,0" /></g><g
           transform="translate(272.9482,261.8467)"
           id="g188"><path
             id="path190"
             style="fill:#f6e184;fill-opacity:1;fill-rule:nonzero;stroke:none"
             d="M 0,0 C 4.105,-1.205 2.929,-4.024 2.063,-6.749 -2.279,-5.211 -2.624,-4.085 0,0" /></g><g
           transform="translate(248.748,256.8965)"
           id="g192"><path
             id="path194"
             style="fill:#e5d5b0;fill-opacity:1;fill-rule:nonzero;stroke:none"
             d="M 0,0 C 3.896,-0.015 7.791,-0.03 11.686,-0.045 7.785,-1.41 3.89,-1.579 0,0" /></g><g
           transform="translate(127.9995,67.0049)"
           id="g196"><path
             id="path198"
             style="fill:#e8da9d;fill-opacity:1;fill-rule:nonzero;stroke:none"
             d="m 0,0 c 3.329,-0.01 6.658,-0.019 9.987,-0.028 0.32,-0.497 0.248,-0.93 -0.215,-1.298 C 5.777,-1.37 2.061,-3.417 -2.003,-2.966 -2.013,-1.52 -2.089,-0.028 0,0" /></g><g
           transform="translate(94.063,59.0596)"
           id="g200"><path
             id="path202"
             style="fill:#f7eec4;fill-opacity:1;fill-rule:nonzero;stroke:none"
             d="M 0,0 C 0.642,-0.029 1.284,-0.058 1.926,-0.087 1.958,-2.047 1.99,-4.008 2.022,-5.969 -1.896,-5.079 0.726,-1.973 0,0" /></g><g
           transform="translate(137.7715,65.6787)"
           id="g204"><path
             id="path206"
             style="fill:#f7e084;fill-opacity:1;fill-rule:nonzero;stroke:none"
             d="M 0,0 C 0.072,0.433 0.143,0.865 0.215,1.298 0.297,2.691 0.91,3.53 2.412,3.117 3.221,2.895 3.885,2.318 3.928,1.385 3.971,0.43 3.318,-0.18 2.515,-0.407 1.748,-0.625 0.897,-0.548 0.083,-0.6 -0.139,-0.427 -0.167,-0.227 0,0" /></g><g
           transform="translate(222.7578,92.9121)"
           id="g208"><path
             id="path210"
             style="fill:#d4cb9e;fill-opacity:1;fill-rule:nonzero;stroke:none"
             d="M 0,0 C 1.437,0.043 2.058,0.59 1.252,2.021 8.474,1.3 9.726,-0.437 8.229,-7.568 8.047,-8.433 7.753,-9.405 6.919,-9.455 6.051,-9.508 5.693,-8.504 5.471,-7.695 5.384,-7.381 5.271,-6.992 5.377,-6.718 7.441,-1.377 3.735,-0.681 0,0" /></g><g
           transform="translate(159.8779,64.9268)"
           id="g212"><path
             id="path214"
             style="fill:#0b0606;fill-opacity:1;fill-rule:nonzero;stroke:none"
             d="m 0,0 c 0.077,-2.313 0.382,-4.648 0.176,-6.937 -0.287,-3.18 -3.191,-4.732 -6.165,-3.626 -2.981,1.109 -2.96,3.638 -3.038,6.154 -0.078,2.533 -0.104,5.09 2.673,6.356 2.65,1.209 4.821,0.499 6.38,-1.985 z" /></g><g
           transform="translate(104.0068,122.3955)"
           id="g216"><path
             id="path218"
             style="fill:#050303;fill-opacity:1;fill-rule:nonzero;stroke:none"
             d="m 0,0 c 1.399,-0.15 1.856,-0.948 1.962,-2.327 0.242,-3.143 0.649,-6.273 1.046,-9.401 0.086,-0.678 -0.401,-1.616 0.579,-1.926 0.122,-0.039 0.779,1.009 0.877,1.606 0.295,1.797 0.687,3.633 0.585,5.428 -0.205,3.588 1.422,4.482 4.751,4.265 4.979,-0.327 4.698,1.116 4.771,-4.772 0.14,-11.303 0.079,-22.62 1.385,-33.871 0.326,-2.806 -0.393,-3.647 -3.373,-3.52 -6.024,0.254 -5.864,0.029 -5.549,5.976 0.242,4.576 1.309,9.105 0.841,13.716 -0.057,0.57 0.244,1.446 -0.576,1.629 -0.843,0.188 -1.024,-0.614 -1.219,-1.24 -0.05,-0.159 -0.035,-0.338 -0.097,-0.489 -1.148,-2.777 -0.996,-6.04 -3.149,-8.441 -1.488,2.425 -1.242,5.373 -2.391,7.896 -0.325,0.716 -0.41,1.894 -1.362,1.853 -1.457,-0.064 -1.021,-1.418 -1.066,-2.302 -0.075,-1.489 -0.016,-2.985 -0.013,-4.477 0.349,-4.667 1.442,-9.336 -0.027,-13.999 -6.843,-2.463 -6.771,-2.471 -6.056,4.068 1.342,12.266 1.587,24.564 0.873,36.882 0.09,1.004 0.18,2.007 0.27,3.009 C -4.679,0.553 -2.418,1.522 0,0" /></g><g
           transform="translate(83.8403,252.2627)"
           id="g220"><path
             id="path222"
             style="fill:#121212;fill-opacity:1;fill-rule:nonzero;stroke:none"
             d="m 0,0 c 0.358,3.951 2.146,7.119 5.858,8.573 3.121,1.222 2.516,2.537 0.713,4.255 -0.835,0.795 -1.959,1.326 -2.667,2.205 -0.657,0.816 -2.731,0.173 -2.181,1.508 0.376,0.912 2.162,0.396 3.202,-0.146 1.311,-0.683 2.645,-1.353 3.49,-2.715 0.367,-0.593 0.669,-1.704 1.722,-1.284 0.902,0.36 0.852,1.35 0.848,2.171 -0.009,1.93 0.897,3.509 1.888,5.047 1.23,1.91 2.218,4.047 4.449,5.087 0.609,-2.335 -1.835,-3.358 -2.259,-5.283 C 14.413,16.469 12.13,13.969 12.928,10.583 13.287,9.058 11.947,8.048 10.609,7.846 4.773,6.966 2.408,2.855 0.934,-2.171 -0.94,-2.12 -0.17,-0.931 0,0" /></g><g
           transform="translate(140.9824,122.1787)"
           id="g224"><path
             id="path226"
             style="fill:#e9dea2;fill-opacity:1;fill-rule:nonzero;stroke:none"
             d="m 0,0 c -3.737,-0.473 -1.565,-3.324 -1.872,-5.039 -0.445,-2.494 -0.482,-5.218 3.588,-3.821 1.758,0.602 2.45,-0.326 2.396,-1.993 -0.236,-7.245 0.555,-14.536 -0.992,-21.72 -0.042,5.132 -0.084,10.264 -0.127,15.396 -0.326,0.353 -0.618,0.733 -0.82,1.168 -0.332,0.715 -0.277,2.013 -0.931,2.085 -1.326,0.147 -0.891,-1.388 -1.375,-2.107 -0.266,-0.398 -0.512,-0.805 -0.849,-1.147 0.003,-1.335 0.007,-2.669 0.011,-4.003 1.806,-3.31 1.955,-6.631 0.071,-9.968 -0.079,-0.791 -0.159,-1.582 -0.238,-2.374 -1.32,0.328 -1.844,1.367 -2.021,2.532 -1.48,9.787 -1.813,19.621 -1.098,29.49 0.061,0.835 0.488,1.56 1.001,2.219 0.413,0.362 0.826,0.723 1.239,1.085 C -1.04,1.543 -0.435,0.866 0,0" /></g><g
           transform="translate(176.0361,254.1255)"
           id="g228"><path
             id="path230"
             style="fill:#1b1b1b;fill-opacity:1;fill-rule:nonzero;stroke:none"
             d="m 0,0 c -0.76,-0.619 -1.494,-1.738 -2.282,-1.777 -5.89,-0.291 -8.848,-3.889 -10.619,-8.964 -0.21,-0.602 -0.274,-1.5 -1.16,-1.268 -1.609,0.421 -0.161,1.224 -0.058,1.777 0.865,4.625 2.601,8.67 7.719,9.962 1.847,0.467 1.542,1.389 0.802,2.488 -0.554,0.824 -1.386,1.482 -1.843,2.346 -0.535,1.009 -2.779,1.096 -2.125,2.03 0.941,1.345 2.384,0.04 3.426,-0.73 2.49,-1.838 3.745,-1.656 5.252,0.859 0.085,0.142 0.168,0.29 0.278,0.412 0.926,1.035 1.727,3.231 3.131,2.378 1.38,-0.84 -0.69,-2.141 -1,-3.315 -0.551,-2.095 -3.053,-3.697 -1.604,-6.3 z" /></g><g
           transform="translate(56.5586,106.835)"
           id="g232"><path
             id="path234"
             style="fill:#1d1d1d;fill-opacity:1;fill-rule:nonzero;stroke:none"
             d="m 0,0 c 0.058,-0.988 0.002,-1.999 0.191,-2.962 0.89,-4.535 2.187,-8.968 -1.036,-13.317 -1.757,-2.371 0.082,-5.126 0.319,-7.708 0.043,-0.468 -0.065,-1.315 -0.28,-1.377 -0.98,-0.284 -0.709,0.675 -0.929,1.153 -1.699,3.702 -3.205,7.432 -0.343,11.246 1.085,1.446 0.523,2.019 -0.963,2.319 -0.486,0.099 -0.987,0.208 -1.433,0.416 -1.436,0.667 -3.18,-0.268 -4.511,0.89 1.825,0.838 3.715,1.18 5.72,0.842 1.138,-0.19 3.393,-2.053 1.834,1.555 -1.037,2.396 -0.422,5.255 -0.069,7.899 0.136,1.024 0.653,1.852 1.575,2.384 0,-0.779 -0.001,-1.559 -0.001,-2.338 V 0.005 C 0.049,0.003 0.024,0.001 0,0" /></g><g
           transform="translate(189.9551,289.0303)"
           id="g236"><path
             id="path238"
             style="fill:#f6e184;fill-opacity:1;fill-rule:nonzero;stroke:none"
             d="m 0,0 c 1.269,0.347 2.292,-0.161 3.1,-1.048 6.525,-7.165 13.701,-13.761 19.181,-21.844 -3.569,1.942 -6.674,4.458 -9.114,7.708 -2.589,3.448 -5.442,6.618 -8.688,9.47 C 2.656,-4.114 0.296,-2.836 0,0" /></g><g
           transform="translate(128.8906,185.1665)"
           id="g240"><path
             id="path242"
             style="fill:#181818;fill-opacity:1;fill-rule:nonzero;stroke:none"
             d="m 0,0 c 0.29,0.583 0.423,1.416 0.894,1.71 3.218,2.015 1.668,3.075 -0.721,4.023 -0.559,0.222 -1.331,0.065 -1.542,0.889 0.492,0.067 0.982,0.168 1.475,0.197 2.781,0.166 3.592,0.779 4.582,3.495 0.17,0.466 0.288,0.966 0.54,1.384 0.475,0.789 0.671,2.221 1.778,1.95 C 7.663,13.487 7.218,12.162 7.039,11.375 6.125,7.364 6.732,2.831 2.676,-0.083 1.531,-0.905 1.036,-2.534 0.939,-4.083 -1.482,-3.207 -0.182,-1.475 0,0" /></g><g
           transform="translate(128.02,133.0186)"
           id="g244"><path
             id="path246"
             style="fill:#f5ecbd;fill-opacity:1;fill-rule:nonzero;stroke:none"
             d="m 0,0 c -3.62,-0.28 -6.451,2.57 -10.33,2.21 -2.857,-0.265 -4.753,-3.301 -7.803,-2.103 2.676,3.874 9.67,5.559 14.208,3.024 C -2.56,2.368 -0.062,2.546 0,0" /></g><g
           transform="translate(55.1323,186.853)"
           id="g248"><path
             id="path250"
             style="fill:#212121;fill-opacity:1;fill-rule:nonzero;stroke:none"
             d="M 0,0 C -2.291,-2.188 -3.97,-4.771 -4.937,-7.791 -5.215,-8.657 -5,-10.104 -6.445,-9.699 c -1.145,0.32 -0.839,1.686 -0.698,2.571 0.175,1.097 0.476,2.306 1.121,3.17 1.557,2.087 2.701,4.52 4.856,6.135 C 0.766,2.277 0.38,1.137 0,0" /></g><g
           transform="translate(104.0068,122.3955)"
           id="g252"><path
             id="path254"
             style="fill:#ebe3ac;fill-opacity:1;fill-rule:nonzero;stroke:none"
             d="M 0,0 C -2.27,-0.841 -4.633,-0.172 -6.938,-0.437 -4.74,0.72 -4.914,4.141 -2.061,4.674 -2.166,2.767 0.588,2.12 0,0" /></g><g
           transform="translate(90.0327,78.0254)"
           id="g256"><path
             id="path258"
             style="fill:#f9ecc0;fill-opacity:1;fill-rule:nonzero;stroke:none"
             d="M 0,0 C 1.749,-0.147 1.978,-1.341 1.948,-2.765 1.903,-4.874 1.906,-6.984 1.888,-9.095 0.178,-8.896 -0.055,-7.717 -0.027,-6.299 0.015,-4.2 -0.006,-2.1 0,0" /></g><g
           transform="translate(55.1323,186.853)"
           id="g260"><path
             id="path262"
             style="fill:#212121;fill-opacity:1;fill-rule:nonzero;stroke:none"
             d="m 0,0 c 0.034,0.952 -0.084,1.822 -1.166,2.177 -0.021,0.815 -0.192,1.66 -0.032,2.438 0.331,1.61 1.167,4.145 2.345,3.85 C 2.755,8.062 0.348,6.312 0.836,4.934 1.271,3.702 -0.125,1.95 1.898,1.131 L 1.833,1.205 C 1.666,0.128 0.792,0.126 0,0" /></g><g
           transform="translate(57.0308,187.9839)"
           id="g264"><path
             id="path266"
             style="fill:#212121;fill-opacity:1;fill-rule:nonzero;stroke:none"
             d="M 0,0 C 1.897,2.307 6.043,2.422 7.144,0.162 7.737,-1.054 6.742,-0.586 6.315,-0.458 4.221,0.167 2.064,-0.06 -0.065,0.074 Z" /></g><g
           transform="translate(128.8906,185.1665)"
           id="g268"><path
             id="path270"
             style="fill:#4c4c4c;fill-opacity:1;fill-rule:nonzero;stroke:none"
             d="M 0,0 C 0.386,-1.344 -0.542,-2.991 0.939,-4.083 1.066,-5.822 1.702,-7.587 0.668,-9.266 -0.473,-7.582 -0.994,-5.709 -0.919,-3.691 -0.872,-2.408 -1.242,-0.995 0,0" /></g><g
           transform="translate(83.8403,252.2627)"
           id="g272"><path
             id="path274"
             style="fill:#3c3c3c;fill-opacity:1;fill-rule:nonzero;stroke:none"
             d="M 0,0 C 0.286,-0.734 0.177,-1.639 0.934,-2.171 0.559,-4.215 0.776,-6.404 -0.546,-8.217 -1.081,-6.087 -0.87,-3.925 -0.749,-1.78 -0.714,-1.174 -0.261,-0.593 0,0" /></g><g
           transform="translate(175.9531,254.0234)"
           id="g276"><path
             id="path278"
             style="fill:#4d4d4d;fill-opacity:1;fill-rule:nonzero;stroke:none"
             d="M 0,0 C 2.139,0.004 4.188,-0.2 5.651,-2.08 6.004,-2.534 6.022,-2.909 5.764,-3.369 5.584,-3.688 5.358,-3.674 5.073,-3.302 3.783,-1.619 0.844,-2.355 0.083,0.102 Z" /></g><g
           transform="translate(203.9785,280.8306)"
           id="g280"><path
             id="path282"
             style="fill:#f6e184;fill-opacity:1;fill-rule:nonzero;stroke:none"
             d="m 0,0 c -3.525,3.196 -6.967,6.474 -9.965,10.186 1.746,-0.07 3.078,-0.053 4.441,-2.027 C -4.359,6.471 -3.244,4 -0.433,3.417 0.868,3.148 0.664,1.275 0,0" /></g><g
           transform="translate(137.7261,122.8965)"
           id="g284"><path
             id="path286"
             style="fill:#050304;fill-opacity:1;fill-rule:nonzero;stroke:none"
             d="m 0,0 c 0.235,-9.806 0.137,-19.626 1.242,-29.396 0.185,-1.639 -0.063,-3.346 0.876,-4.845 0.099,-3.157 0.07,-6.326 0.339,-9.469 0.206,-2.401 -0.575,-3.426 -3.027,-3.192 -0.981,0.093 -2.003,-0.026 -2.984,-0.189 -1.93,-0.321 -2.652,0.142 -2.404,2.342 0.336,2.967 0.194,5.988 0.223,8.986 0.008,0.785 0.15,1.742 -1.069,1.819 -1.26,0.079 -1.812,-0.626 -1.793,-1.802 0.033,-1.996 -0.074,-4.021 0.222,-5.981 0.448,-2.968 -0.31,-4.262 -3.614,-4.093 -5.446,0.277 -5.443,-0.928 -4.497,4.6 2.138,12.491 2.579,25.125 3.857,37.685 0.278,2.735 1.395,3.727 4.136,3.522 C -5.678,-0.224 -2.833,-0.021 0,0" /></g><g
           transform="translate(101.9814,77.999)"
           id="g288"><path
             id="path290"
             style="fill:#f7e084;fill-opacity:1;fill-rule:nonzero;stroke:none"
             d="M 0,0 C -0.649,4.668 -1.402,9.335 0.027,13.999 1.102,13.885 1.929,13.476 1.968,12.242 2.046,9.7 1.537,7.224 5.303,6.269 6.747,5.902 6.438,2.58 5.63,0.88 4.375,-1.76 1.987,-0.274 0,0" /></g><g
           transform="translate(95.9937,100.3545)"
           id="g292"><path
             id="path294"
             style="fill:#f7e084;fill-opacity:1;fill-rule:nonzero;stroke:none"
             d="m 0,0 c 0,-0.826 0.058,-1.658 -0.016,-2.479 -0.081,-0.894 0.342,-2.285 -1.08,-2.292 -0.996,-0.006 -0.949,1.218 -0.869,1.976 0.199,1.875 -1.449,2.92 -1.856,4.475 -0.285,1.089 -0.449,2.315 0.351,3.318 0.598,0.75 1.482,0.672 2.274,0.411 1.494,-0.49 1.107,-1.835 1.185,-2.93 C 0.047,1.657 0,0.827 0,0" /></g><g
           transform="translate(140,105.001)"
           id="g296"><path
             id="path298"
             style="fill:#f7e084;fill-opacity:1;fill-rule:nonzero;stroke:none"
             d="M 0,0 C 0.803,1.949 -1.895,5.896 2.23,5.697 5.388,5.545 3.488,1.998 3.976,0.001 2.65,0.001 1.325,0 0,0" /></g><g
           transform="translate(140.0825,91.0293)"
           id="g300"><path
             id="path302"
             style="fill:#f7e084;fill-opacity:1;fill-rule:nonzero;stroke:none"
             d="M 0,0 C -0.023,3.323 -0.047,6.646 -0.071,9.969 3.893,6.905 3.917,3.451 0,0" /></g><g
           transform="translate(143.9902,73.6748)"
           id="g304"><path
             id="path306"
             style="fill:#f7e084;fill-opacity:1;fill-rule:nonzero;stroke:none"
             d="M 0,0 C -0.069,-1.179 0.088,-2.55 -1.653,-2.508 -3.02,-2.475 -3.817,-1.57 -3.854,-0.261 -3.896,1.223 -2.594,1.665 -1.5,1.905 0.048,2.246 -0.118,0.932 0,0" /></g><g
           transform="translate(172.0254,107.4082)"
           id="g308"><path
             id="path310"
             style="fill:#e4d691;fill-opacity:1;fill-rule:nonzero;stroke:none"
             d="M 0,0 C 0,0.664 -0.068,1.336 0.014,1.989 0.206,3.518 -0.314,5.71 2.431,5.252 4.604,4.89 6.187,3.732 5.978,1.25 5.767,-1.249 4.208,-2.996 2.274,-4.376 c -1.64,-1.17 -2.391,-0.493 -2.35,1.387 0.021,0.996 0.004,1.993 0.004,2.989 z" /></g><g
           transform="translate(128.8965,105.7559)"
           id="g312"><path
             id="path314"
             style="fill:#e7e0b0;fill-opacity:1;fill-rule:nonzero;stroke:none"
             d="M 0,0 C 0.172,1.943 -0.097,3.498 0.678,4.906 1.624,3.52 2.146,1.883 1.981,0.317 1.8,-1.405 3.564,-4.549 1.074,-4.568 -1.129,-4.586 0.708,-1.266 0,0" /></g></g></g></g></svg>